<?xml version="1.0" encoding="UTF-8"?>
<svg id="Layer_1" xmlns="http://www.w3.org/2000/svg" xmlns:xlink="http://www.w3.org/1999/xlink" version="1.1" viewBox="0 0 1212.81 238.02">
  <!-- Generator: Adobe Illustrator 30.1.0, SVG Export Plug-In . SVG Version: 2.1.1 Build 136)  -->
  <defs>
    <style>
      .st0 {
        fill: #a71f22;
      }

      .st1 {
        fill: #010101;
      }

      .st2 {
        fill: url(#radial-gradient);
      }

      .st3, .st4 {
        fill: #193a20;
      }

      .st5 {
        fill: url(#linear-gradient);
      }

      .st6 {
        font-family: MyriadPro-Regular, 'Myriad Pro';
        font-size: 109.78px;
      }

      .st7 {
        fill: #121313;
      }

      .st8 {
        font-size: 219.74px;
      }

      .st8, .st9 {
        fill: #121212;
      }

      .st8, .st4 {
        font-family: QuavoDemiBold, Quavo;
      }

      .st10 {
        fill: #020202;
      }

      .st11 {
        fill: #fff;
      }

      .st12 {
        fill: #1c3a1f;
      }

      .st13 {
        fill: #845021;
      }

      .st14 {
        stroke: #183a1d;
        stroke-linejoin: round;
        stroke-width: 3px;
      }

      .st14, .st15 {
        fill: #183a1d;
      }

      .st16 {
        fill: #9f6728;
      }

      .st4 {
        font-size: 202.72px;
      }
    </style>
    <linearGradient id="linear-gradient" x1="-1840.01" y1="-4050.36" x2="-1840.01" y2="-3967.51" gradientUnits="userSpaceOnUse">
      <stop offset="0" stop-color="#22390c"/>
      <stop offset="1" stop-color="#be772a"/>
    </linearGradient>
    <radialGradient id="radial-gradient" cx="170.04" cy="119.01" fx="170.04" fy="119.01" r="146.76" gradientUnits="userSpaceOnUse">
      <stop offset="0" stop-color="#ea7346"/>
      <stop offset=".02" stop-color="#e37447"/>
      <stop offset=".21" stop-color="#a1835a"/>
      <stop offset=".39" stop-color="#698f69"/>
      <stop offset=".56" stop-color="#3e9975"/>
      <stop offset=".71" stop-color="#1fa07d"/>
      <stop offset=".83" stop-color="#0ca483"/>
      <stop offset=".92" stop-color="#06a685"/>
    </radialGradient>
  </defs>
  <rect class="st11" x="-3937.11" y="-5578.44" width="3772.23" height="3523.76"/>
  <g>
    <g>
      <path class="st7" d="M-3001.67-5361.8c-2.49,0-3.74-1.17-3.74-3.64v-105.72c0-2.08,1.25-3.12,3.74-3.12h33.76c29.9,0,54.07,25.23,54.07,56.17s-24.29,56.3-54.07,56.3h-33.76ZM-2937.14-5418.62c0-17.16-13.83-31.99-30.77-31.99h-15.32v64.11h15.32c16.94,0,30.77-14.3,30.77-32.12Z"/>
      <path class="st7" d="M-2904.38-5403.01c0-18.47,11.34-35.63,30.65-40.18,2.49-.65,4.98-.91,7.47-.91,8.6,0,17.69,3.51,23.17,8.71,7.35,7.15,13.33,18.07,13.33,36.93,0,2.08-.75,3.12-2.24,3.12h-48.71c.37.78,2.87,4.94,5.98,7.15,2.62,1.95,6.1,2.86,9.47,2.86,5.73,0,11.34-2.99,13.58-6.63.5-.91,1.12-1.43,1.99-1.43.5,0,1,.26,1.62.65l14.45,9.36c.87.52,1.37,1.3,1.37,2.08,0,.52-.12,1.04-.5,1.56-6.73,10.53-19.44,17.68-32.14,17.68-21.55,0-39.49-18.98-39.49-40.96ZM-2862.39-5421.35l-3.24-.26c-4.24.26-5.98.26-9.47,2.73-1.87,1.43-3.24,2.86-3.86,4.29h25.54c-1.49-3.12-4.61-5.98-8.97-6.76Z"/>
      <path class="st7" d="M-2819.66-5403.01c0-18.47,11.34-35.63,30.65-40.18,2.49-.65,4.98-.91,7.47-.91,8.6,0,17.69,3.51,23.17,8.71,7.35,7.15,13.33,18.07,13.33,36.93,0,2.08-.75,3.12-2.24,3.12h-48.71c.37.78,2.87,4.94,5.98,7.15,2.62,1.95,6.1,2.86,9.47,2.86,5.73,0,11.34-2.99,13.58-6.63.5-.91,1.12-1.43,1.99-1.43.5,0,1,.26,1.62.65l14.45,9.36c.87.52,1.37,1.3,1.37,2.08,0,.52-.12,1.04-.5,1.56-6.73,10.53-19.44,17.68-32.14,17.68-21.55,0-39.49-18.98-39.49-40.96ZM-2777.68-5421.35l-3.24-.26c-4.24.26-5.98.26-9.47,2.73-1.87,1.43-3.24,2.86-3.86,4.29h25.54c-1.49-3.12-4.61-5.98-8.97-6.76Z"/>
      <path class="st7" d="M-2683.87-5361.8c-2.37,0-3.49-1.17-3.49-3.38v-39.92c0-10.14-5.61-15.34-12.83-15.34-5.11,0-9.22,2.47-12.21,7.41v47.85c0,2.21-1.25,3.38-3.74,3.38h-14.82c-2.37,0-3.49-1.17-3.49-3.38v-75.03c0-1.95,1.12-2.86,3.49-2.86h14.82c2.37,0,3.49.91,3.49,2.47l-.5,5.2c5.36-5.59,11.46-8.32,18.44-8.32,16.2,0,29.28,13.65,29.28,31.47v47.07c0,2.21-1.25,3.38-3.61,3.38h-14.82Z"/>
      <path class="st7" d="M-2651.11-5461.14c0-7.15,5.48-12.87,12.33-12.87s12.46,5.85,12.46,12.87-5.48,13-12.46,13-12.33-5.59-12.33-13ZM-2646.63-5361.8c-2.37,0-3.49-1.17-3.49-3.38v-74.38c0-1.95,1.12-2.86,3.49-2.86h14.83c2.37,0,3.61.91,3.61,2.86v74.38c0,2.21-1.25,3.38-3.61,3.38h-14.83Z"/>
      <path class="st7" d="M-2581.72-5361.8c-2.37,0-3.49-1.17-3.49-3.38v-86.21h-25.91c-2.24,0-3.36-1.3-3.36-3.77v-15.47c0-2.47,1.12-3.64,3.36-3.64h74.25c1.87,0,2.87,1.17,2.87,3.64v15.47c0,2.47-1,3.77-2.87,3.77h-26.41v86.21c0,2.21-1.25,3.38-3.61,3.38h-14.82Z"/>
      <path class="st7" d="M-2492.27-5360.88c-2.37-2.99-3.86-5.59-4.48-7.8-3.49,4.55-10.09,6.89-19.68,6.89-16.2,0-29.28-13.65-29.28-31.47v-45.77c0-2.21,1.25-3.38,3.61-3.38h14.83c2.37,0,3.49,1.17,3.49,3.38v38.62c0,10.14,5.61,15.34,12.83,15.34,5.11,0,9.22-2.47,12.21-7.41v-46.55c0-2.21,1.25-3.38,3.74-3.38h14.82c2.37,0,3.49,1.17,3.49,3.38v46.81c0,10.53,1.25,18.21,3.86,23.15.37.78.5,1.43.5,1.95,0,1.3-.75,2.21-2.37,2.73l-13.58,4.81c-.37.13-.75.26-1.12.26-1,0-1.99-.52-2.87-1.56Z"/>
      <path class="st7" d="M-2460.63-5364.14c-1.37-.39-1.99-1.04-1.99-2.21,0-.52.12-1.17.37-1.82,2.24-5.85,3.36-12.09,3.36-18.99v-86.86c0-1.95,1.12-2.86,3.49-2.86h14.83c2.49,0,3.74.91,3.74,2.86v36.15c2.12-1.3,11.09-5.07,18.94-5.07,21.8,0,38.87,18.46,38.87,40.57s-18.19,40.57-38.87,40.57c-6.85,0-15.2-1.95-20.68-6.5-1.25,4.55-4.61,8.06-5.98,8.06-.87,0-6.23-1.3-16.07-3.9ZM-2402.07-5402.63c0-10.14-8.1-17.94-17.19-17.94-9.97,0-17.32,8.58-17.32,17.94,0,10.4,8.22,18.07,17.32,18.07s17.19-8.19,17.19-18.07Z"/>
      <path class="st7" d="M-2369.56-5403.01c0-18.47,11.34-35.63,30.65-40.18,2.49-.65,4.98-.91,7.47-.91,8.6,0,17.69,3.51,23.17,8.71,7.35,7.15,13.33,18.07,13.33,36.93,0,2.08-.75,3.12-2.24,3.12h-48.71c.37.78,2.87,4.94,5.98,7.15,2.62,1.95,6.1,2.86,9.47,2.86,5.73,0,11.34-2.99,13.58-6.63.5-.91,1.12-1.43,1.99-1.43.5,0,1,.26,1.62.65l14.45,9.36c.87.52,1.37,1.3,1.37,2.08,0,.52-.12,1.04-.5,1.56-6.73,10.53-19.44,17.68-32.14,17.68-21.55,0-39.49-18.98-39.49-40.96ZM-2327.58-5421.35l-3.24-.26c-4.24.26-5.98.26-9.47,2.73-1.87,1.43-3.24,2.86-3.86,4.29h25.54c-1.49-3.12-4.61-5.98-8.97-6.76Z"/>
    </g>
    <g>
      <path class="st12" d="M-3149.58-5328.99c-14.97,0-27.44-.2-39.92-.52-7.77-.19-15.54-.45-23.31-.82-7.15-.34-14.29-.74-21.42-1.4-5.29-.49-10.59-.92-15.77-2.09-12.89-2.93-21.23-10.83-24.88-23.51-1.57-5.45-2.21-11.11-2.82-16.75-1.86-17.32-2.46-34.69-2.16-52.1.13-7.68.49-15.36,1.03-23.02.45-6.37.98-12.73,1.92-19.05.75-5.05,1.36-10.17,3.47-14.89,4.84-10.8,12.99-17.51,24.75-19.62,6.66-1.2,13.38-1.73,20.12-2.22,10.61-.77,21.23-1.18,31.86-1.51,19.73-.6,39.46-.87,59.2-.6,8.24.11,16.47.27,24.71.5,8.32.23,16.65.56,24.96,1.02,5.64.32,11.29.65,16.91,1.19,6.28.6,12.62,1.04,18.69,2.91,11.35,3.5,18.59,11.1,21.73,22.54,1.54,5.6,2.32,11.34,2.98,17.09,1.18,10.26,1.72,20.57,2.05,30.89.29,9.25.25,18.5-.07,27.75-.25,6.94-.62,13.87-1.22,20.79-.62,7.15-1.43,14.28-2.79,21.33-1.22,6.29-3.36,12.14-7.68,17.03-4.85,5.5-10.87,9.01-18.06,10.41-6.27,1.22-12.63,1.75-19,2.26-8.33.67-16.68,1.06-25.03,1.39-7.28.28-14.56.43-21.84.61-10.3.25-20.59.4-28.4.38Z"/>
      <path class="st11" d="M-3152.49-5420.07c-.11.02-.2,0-.25-.11.11-.02.2,0,.25.11Z"/>
      <g>
        <path class="st11" d="M-3126.65-5420.67c1.98,1.14,1.98,4.01,0,5.15l-16.34,9.43-16.34,9.43c-1.98,1.14-4.46-.29-4.46-2.58v-37.73c0-2.29,2.48-3.72,4.46-2.58l16.34,9.43,16.34,9.43Z"/>
        <path class="st11" d="M-3105.76-5433.99l-27.2-15.7-27.2-15.7c-12.23-7.06-27.51,1.77-27.51,15.89v62.82c0,14.12,15.29,22.95,27.51,15.89l27.2-15.7,27.2-15.7c12.23-7.06,12.23-24.72,0-31.78ZM-3111.95-5411.74l-26.51,15.31-26.51,15.31c-4.89,2.82-11.01-.7-11.01-6.36v-61.22c0-5.65,6.12-9.18,11.01-6.36l26.51,15.31,26.51,15.31c4.89,2.82,4.89,9.89,0,12.72Z"/>
      </g>
    </g>
  </g>
  <text class="st6" transform="translate(-3854.54 -5387.21)"><tspan x="0" y="0">Idea Board</tspan></text>
  <text class="st8" transform="translate(-3268.7 -4854.36)"><tspan x="0" y="0">Deeni.tv</tspan></text>
  <path class="st15" d="M-3491.28-4843.78l-.17,14.05c-.03,2.58-2,4.54-4.62,4.54h-45c-2.65.01-5.12-1.74-5.15-4.54l-.16-15.37c-12.94-4.76-23.32-16.38-23.34-30.88l-.18-129.05c-.03-18.52,14.21-34.02,32.98-34.06l89.8-.19-19.34-19.4c-1.98-1.99-2.89-4.38-.89-6.76,1.55-1.84,4.51-2.27,6.69-.11l24.58,24.08,45.7-45.71c1.91-1.91,4.23-2.15,6.14-.7,1.78,1.35,2.73,4.47.73,6.48l-41.62,42.15,112.5.15c19.03.03,33.46,15.93,33.44,34.64l-.13,127.89c-.01,14.85-10.25,26.96-23.88,31.47l-.07,14.78c-.01,3.05-2.13,5.13-5.21,5.13h-44.39c-3.07,0-5.26-2.03-5.27-5.14l-.03-13.46h-133.12ZM-3381.24-4867.88c14.57,0,25.22-12.18,25.18-25.76l-.28-96.2c-.04-14.74-11.79-25.81-26.39-25.8l-131.97.07c-14.64,0-25.71,11.92-25.7,26.27l.06,95.78c0,14.56,11.79,25.73,26.2,25.72l132.9-.08ZM-3303.71-4976.61c0-8.51-6.9-15.42-15.42-15.42s-15.42,6.9-15.42,15.42,6.9,15.42,15.42,15.42,15.42-6.9,15.42-15.42ZM-3303.63-4931.72c0-8.53-6.92-15.45-15.45-15.45s-15.45,6.92-15.45,15.45,6.92,15.45,15.45,15.45,15.45-6.92,15.45-15.45ZM-3314.58-4891.07c2.83-.06,4.22-3.08,3.98-5.01-.28-2.25-2.25-4-4.82-3.96l-7.62.13c-2.64.04-4.37,2.83-4.16,4.9.23,2.27,2.14,4.14,4.69,4.09l7.93-.16Z"/>
  <circle class="st15" cx="-3319.08" cy="-4932.22" r="6.31"/>
  <circle class="st15" cx="-3319.03" cy="-4977.11" r="6.34"/>
  <path class="st9" d="M-3260.17-4435.05c-3.66,0-5.49-1.65-5.49-5.13v-148.88c0-2.93,1.83-4.39,5.49-4.39h49.62c43.95,0,79.47,35.53,79.47,79.11s-35.71,79.29-79.47,79.29h-49.62ZM-3165.32-4515.07c0-24.17-20.33-45.05-45.23-45.05h-22.52v90.28h22.52c24.91,0,45.23-20.14,45.23-45.23Z"/>
  <path class="st9" d="M-3117.16-4493.1c0-26,16.66-50.18,45.05-56.58,3.66-.92,7.33-1.28,10.99-1.28,12.64,0,26,4.94,34.06,12.27,10.8,10.07,19.59,25.45,19.59,52.01,0,2.93-1.1,4.39-3.3,4.39h-71.6c.55,1.1,4.21,6.96,8.79,10.07,3.85,2.75,8.97,4.03,13.92,4.03,8.42,0,16.66-4.21,19.96-9.34.73-1.28,1.65-2.01,2.93-2.01.73,0,1.47.37,2.38.92l21.24,13.18c1.28.73,2.01,1.83,2.01,2.93,0,.73-.18,1.46-.73,2.2-9.89,14.83-28.57,24.9-47.25,24.9-31.68,0-58.05-26.74-58.05-57.68ZM-3055.45-4518.92l-4.76-.37c-6.23.37-8.79.37-13.92,3.85-2.75,2.01-4.76,4.03-5.68,6.04h37.54c-2.2-4.4-6.78-8.42-13.18-9.52Z"/>
  <path class="st9" d="M-2992.64-4493.1c0-26,16.66-50.18,45.05-56.58,3.66-.92,7.33-1.28,10.99-1.28,12.63,0,26,4.94,34.06,12.27,10.8,10.07,19.59,25.45,19.59,52.01,0,2.93-1.1,4.39-3.3,4.39h-71.6c.55,1.1,4.21,6.96,8.79,10.07,3.85,2.75,8.97,4.03,13.92,4.03,8.42,0,16.66-4.21,19.96-9.34.73-1.28,1.65-2.01,2.93-2.01.73,0,1.46.37,2.38.92l21.24,13.18c1.28.73,2.01,1.83,2.01,2.93,0,.73-.18,1.46-.73,2.2-9.89,14.83-28.57,24.9-47.25,24.9-31.68,0-58.05-26.74-58.05-57.68ZM-2930.93-4518.92l-4.76-.37c-6.23.37-8.79.37-13.92,3.85-2.75,2.01-4.76,4.03-5.68,6.04h37.54c-2.2-4.4-6.78-8.42-13.18-9.52Z"/>
  <path class="st9" d="M-2793.04-4435.05c-3.48,0-5.13-1.65-5.13-4.76v-56.22c0-14.28-8.24-21.61-18.86-21.61-7.51,0-13.55,3.48-17.95,10.44v67.39c0,3.11-1.83,4.76-5.49,4.76h-21.79c-3.48,0-5.13-1.65-5.13-4.76v-105.66c0-2.75,1.65-4.03,5.13-4.03h21.79c3.48,0,5.13,1.28,5.13,3.48l-.73,7.32c7.88-7.87,16.85-11.72,27.1-11.72,23.81,0,43.03,19.23,43.03,44.32v66.29c0,3.11-1.83,4.76-5.31,4.76h-21.79Z"/>
  <path class="st9" d="M-2744.88-4574.95c0-10.07,8.06-18.13,18.13-18.13s18.31,8.24,18.31,18.13-8.06,18.31-18.31,18.31-18.13-7.88-18.13-18.31ZM-2738.29-4435.05c-3.48,0-5.13-1.65-5.13-4.76v-104.75c0-2.75,1.65-4.03,5.13-4.03h21.79c3.48,0,5.31,1.28,5.31,4.03v104.75c0,3.11-1.83,4.76-5.31,4.76h-21.79Z"/>
  <path class="st9" d="M-3265.76-4031.55c-3.66,0-5.49-1.65-5.49-5.13v-148.88c0-2.93,1.83-4.39,5.49-4.39h49.62c43.95,0,79.47,35.53,79.47,79.11s-35.71,79.29-79.47,79.29h-49.62ZM-3170.9-4111.58c0-24.17-20.33-45.05-45.23-45.05h-22.52v90.28h22.52c24.91,0,45.23-20.14,45.23-45.23Z"/>
  <path class="st9" d="M-3122.74-4089.6c0-26,16.66-50.18,45.05-56.58,3.66-.92,7.33-1.28,10.99-1.28,12.64,0,26,4.94,34.06,12.27,10.8,10.07,19.59,25.45,19.59,52.01,0,2.93-1.1,4.39-3.3,4.39h-71.6c.55,1.1,4.21,6.96,8.79,10.07,3.85,2.75,8.97,4.03,13.92,4.03,8.42,0,16.66-4.21,19.96-9.34.73-1.28,1.65-2.01,2.93-2.01.73,0,1.47.37,2.38.92l21.24,13.18c1.28.73,2.01,1.83,2.01,2.93,0,.73-.18,1.46-.73,2.2-9.89,14.83-28.57,24.9-47.25,24.9-31.68,0-58.05-26.74-58.05-57.68ZM-3061.03-4115.42l-4.76-.37c-6.23.37-8.79.37-13.92,3.85-2.75,2.01-4.76,4.03-5.68,6.04h37.54c-2.2-4.4-6.78-8.42-13.18-9.52Z"/>
  <path class="st9" d="M-2998.22-4089.6c0-26,16.66-50.18,45.05-56.58,3.66-.92,7.33-1.28,10.99-1.28,12.63,0,26,4.94,34.06,12.27,10.8,10.07,19.59,25.45,19.59,52.01,0,2.93-1.1,4.39-3.3,4.39h-71.6c.55,1.1,4.21,6.96,8.79,10.07,3.85,2.75,8.97,4.03,13.92,4.03,8.42,0,16.66-4.21,19.96-9.34.73-1.28,1.65-2.01,2.93-2.01.73,0,1.46.37,2.38.92l21.24,13.18c1.28.73,2.01,1.83,2.01,2.93,0,.73-.18,1.46-.73,2.2-9.89,14.83-28.57,24.9-47.25,24.9-31.68,0-58.05-26.74-58.05-57.68ZM-2936.51-4115.42l-4.76-.37c-6.23.37-8.79.37-13.92,3.85-2.75,2.01-4.76,4.03-5.68,6.04h37.54c-2.2-4.4-6.78-8.42-13.18-9.52Z"/>
  <path class="st9" d="M-2798.63-4031.55c-3.48,0-5.13-1.65-5.13-4.76v-56.22c0-14.28-8.24-21.61-18.86-21.61-7.51,0-13.55,3.48-17.95,10.44v67.39c0,3.11-1.83,4.76-5.49,4.76h-21.79c-3.48,0-5.13-1.65-5.13-4.76v-105.66c0-2.75,1.65-4.03,5.13-4.03h21.79c3.48,0,5.13,1.28,5.13,3.48l-.73,7.32c7.88-7.87,16.85-11.72,27.1-11.72,23.81,0,43.03,19.23,43.03,44.32v66.29c0,3.11-1.83,4.76-5.31,4.76h-21.79Z"/>
  <path class="st9" d="M-2750.47-4171.46c0-10.07,8.06-18.13,18.13-18.13s18.31,8.24,18.31,18.13-8.06,18.31-18.31,18.31-18.13-7.88-18.13-18.31ZM-2743.88-4031.55c-3.48,0-5.13-1.65-5.13-4.76v-104.75c0-2.75,1.65-4.03,5.13-4.03h21.79c3.48,0,5.31,1.28,5.31,4.03v104.75c0,3.11-1.83,4.76-5.31,4.76h-21.79Z"/>
  <path class="st9" d="M-2690.13-4453.18c0-10.44,8.24-18.31,18.13-18.31s18.31,8.06,18.31,18.31-7.87,18.13-18.31,18.13-18.13-8.06-18.13-18.13Z"/>
  <path class="st9" d="M-2578.98-4435.05c-21.61,0-39.55-14.1-39.55-40.47v-46.33h-17.58c-3.11,0-4.76-1.47-4.76-4.58v-16.66c0-3.66,1.65-5.49,4.76-5.49h17.58v-28.57c0-3.48,1.83-5.49,5.68-6.23l20.88-4.21,1.46-.18c2.93,0,4.21,1.65,4.21,4.76v34.43h18.31c2.75,0,4.03,1.83,4.03,5.49v16.66c0,3.11-1.28,4.58-4.03,4.58h-18.31v43.03c0,5.68,3.11,10.8,6.96,11.9,2.01.73,6.59,1.1,13.73,1.1,2.93,0,4.4,1.47,4.4,4.21v22.71c0,2.56-1.47,3.85-4.4,3.85h-13.37Z"/>
  <path class="st9" d="M-2507.93-4435.05c-2.01,0-3.48-1.65-4.76-5.13l-40.29-103.83c-.37-.73-.37-1.46-.37-2.01,0-1.65,1.46-2.56,4.39-2.56h26.37c2.2,0,3.66,1.1,4.58,3.48l24.17,63.73,23.99-63.91c.92-2.2,2.38-3.3,4.76-3.3h26.55c2.93,0,4.4.92,4.4,2.75,0,.55-.18,1.28-.55,2.01l-39.92,103.65c-1.28,3.48-2.93,5.13-4.94,5.13h-28.38Z"/>
  <path class="st1" d="M-3522.27-4558.5v-13.43c1.85-19.22,9.27-36.96,22.34-51.19,1.78-2.16,3.61-3.85,5.7-5.74,17.77-16.09,40.21-23.77,64.22-22.16,21.79,1.47,42.72,11.68,57.34,27.88,16.01,17.73,23.83,40.31,22.14,64.23-1.33,18.96-8.89,36.75-21.54,50.86-1.27,1.42-2.25,2.93-3.8,3.88-2.51,1.54-5.57.74-7-1.49-1.58-2.47-.77-5.1,1.27-7.2,27.51-28.28,28.09-73.91,1.46-103.13-.96-1.05-1.81-2.04-2.78-2.94l-3.85-3.56c-11.58-10.72-26.52-16.56-42.2-18.17-1.39-.14-2.65.05-3.97-.16-2.32-.37-4.42-.37-6.74,0-1.33.21-2.58.03-3.98.17-19.57,2.01-37.02,11.07-49.91,25.89-25.6,29.42-24.5,74.09,2.55,101.91,2.04,2.09,2.85,4.73,1.27,7.19-1.43,2.24-4.48,3.01-7,1.5-1.57-.95-2.52-2.5-3.77-3.88-12.81-14.09-19.91-31.78-21.72-50.46Z"/>
  <path class="st1" d="M-3431.03-4619.11c-15.32-1.36-29.42,3.11-40.98,13.12-10.28,8.89-17,21.94-18.21,35.5-1.32,14.74,2.64,27.81,11.7,39.37,1.83,2.34,1,5.65-1.2,7.18-2.42,1.68-5.31,1.09-7.27-1.42-16.38-20.96-18.48-49.73-4.72-72.75,3.36-5.63,7.43-10.61,12.11-14.84,24.67-22.29,61.9-22.32,86.56,0,12.14,10.99,19.86,26.49,21.04,43.21,1.13,16.04-3.86,31.99-13.79,44.55-1.22,1.54-2.95,2.49-4.76,2.23-1.89-.28-3.46-1.62-4.05-2.95-.87-1.98-.54-3.99.74-5.6,8.94-11.31,12.75-24.59,11.44-38.97-2.32-25.6-23.1-46.36-48.61-48.62Z"/>
  <path class="st1" d="M-3406.89-4550.83c6.47-13.93,2.86-30.29-8.92-39.76-11.92-9.58-28.82-9.65-40.82-.15-11.91,9.43-15.62,25.94-9.13,39.8,1.25,2.67-.59,5.72-2.85,6.56-2.74,1.02-5.57-.29-6.73-2.96-3.09-7.06-4.43-14.22-3.69-21.88,2.28-23.62,23.42-40.96,46.74-38.71,20.5,1.98,36.68,18.22,38.71,38.71.76,7.71-.65,14.76-3.7,21.87-1.14,2.65-3.71,3.92-6.49,3.05-2.2-.69-4.45-3.66-3.11-6.53Z"/>
  <g>
    <path class="st1" d="M-3394.32-4470.58h-83.93c-7.21-1.66-12.68-6.59-12.05-14.43.29-3.65,1.89-6.66,3.75-9.86l37.98-65.64c2.55-4.4,7.26-7.54,12.29-7.54,5.05,0,9.74,3.14,12.29,7.54l37.85,65.37c1.84,3.18,3.46,6.15,3.84,9.77.87,8.15-4.89,13.16-12.01,14.78Z"/>
    <path class="st16" d="M-3396.3-4482.27h-79.85c-.84.01-1.74-.58-2.07-.95-.38-.43-.44-1.67.02-2.47l39.91-69.13c.43-.74,1.35-1.2,1.86-1.27.6-.09,1.69.44,2.17,1.27l39.9,69.11c.42.72.35,1.79.17,2.26s-.98,1.19-2.09,1.19Z"/>
  </g>
  <path d="M-3300.57-4625.22h-76.47c1.51,1.44,2.98,2.94,4.38,4.5,3.56,3.95,6.72,8.13,9.45,12.52h54.87v162h-255.9v-162h54.81c2.74-4.4,5.91-8.58,9.5-12.49,1.38-1.69,2.8-3.08,4.35-4.52h-77.39c-4.39,0-8.24,3.82-8.24,8.24v179.31c0,4.83,3.96,8.4,8.46,8.41l35.69.06-8.71,15.13c-2.4,4.17-.33,9.45,3.71,11.47,4.1,2.05,8.89.5,11.35-3.69l13.46-22.95h161.92l13.68,23.3c2.46,4.18,7.63,5.32,11.44,3.17,4.12-2.32,5.63-7.5,3.21-11.66l-8.53-14.76,36.21-.08c4.01,0,6.22-3.13,7.96-6.16v-183.25c-1.63-3.99-4.46-6.55-9.22-6.55Z"/>
  <g>
    <path class="st16" d="M-3400.66-4889.17c-.22-4.26-.57-7.8-1.38-11.62-8.75-41.71-41.46-74.56-83.13-83.48-3.96-.85-7.7-1.29-11.77-1.42-4.59-.14-7.97-3.68-8.1-7.94s3.33-8.45,8.11-8.48c5.29-.03,10.21.65,15.34,1.75,47.89,10.26,85.56,48.07,95.65,96,1.01,4.81,1.59,9.38,1.7,14.33.11,4.62-3.22,8.26-7.48,8.65-4.39.41-8.67-2.75-8.93-7.79Z"/>
    <path class="st16" d="M-3433.23-4888.08c-4.57-34.07-31.1-60.56-64.97-65.05-4.46-.59-7.27-4.92-6.79-9.06.48-4.18,4.38-7.79,8.98-7.2,41.15,5.28,73.7,37.85,79,78.99.57,4.43-2.75,8.24-6.78,8.92-4,.67-8.79-1.76-9.44-6.6Z"/>
    <path class="st16" d="M-3450.59-4891.22c1.07,4.8-2.28,8.73-6.11,9.64-4.5,1.07-8.89-1.63-9.97-6.26-3.72-15.97-15.94-28.2-31.91-31.91-4.46-1.04-7.08-5.18-6.35-9.45.7-4.1,4.82-7.66,9.47-6.66,22.31,4.79,39.85,22.11,44.86,44.63Z"/>
    <circle class="st16" cx="-3496.84" cy="-4889.56" r="8.22"/>
  </g>
  <path class="st9" d="M-2682.37-4048.71c0-10.44,8.24-18.31,18.13-18.31s18.31,8.06,18.31,18.31-7.87,18.13-18.31,18.13-18.13-8.06-18.13-18.13Z"/>
  <path class="st9" d="M-2578.98-4030.58c-21.61,0-39.55-14.1-39.55-40.47v-46.33h-17.58c-3.11,0-4.76-1.47-4.76-4.58v-16.66c0-3.66,1.65-5.49,4.76-5.49h17.58v-28.57c0-3.48,1.83-5.49,5.68-6.23l20.88-4.21,1.46-.18c2.93,0,4.21,1.65,4.21,4.76v34.43h18.31c2.75,0,4.03,1.83,4.03,5.49v16.66c0,3.11-1.28,4.58-4.03,4.58h-18.31v43.03c0,5.68,3.11,10.8,6.96,11.9,2.01.73,6.59,1.1,13.73,1.1,2.93,0,4.4,1.47,4.4,4.21v22.71c0,2.56-1.47,3.85-4.4,3.85h-13.37Z"/>
  <path class="st9" d="M-2507.93-4030.58c-2.01,0-3.48-1.65-4.76-5.13l-40.29-103.83c-.37-.73-.37-1.46-.37-2.01,0-1.65,1.46-2.56,4.39-2.56h26.37c2.2,0,3.66,1.1,4.58,3.48l24.17,63.73,23.99-63.91c.92-2.2,2.38-3.3,4.76-3.3h26.55c2.93,0,4.4.92,4.4,2.75,0,.55-.18,1.28-.55,2.01l-39.92,103.65c-1.28,3.48-2.93,5.13-4.94,5.13h-28.38Z"/>
  <path class="st16" d="M-3399.84-4116.02c4.06,2.34,4.06,8.2,0,10.54l-33.43,19.3-33.43,19.3c-4.06,2.34-9.13-.59-9.13-5.27v-77.21c0-4.68,5.07-7.61,9.13-5.27l33.43,19.3,33.43,19.3Z"/>
  <path class="st16" d="M-3352.69-4143.47l-55.65-32.13-55.66-32.13c-25.02-14.45-56.3,3.62-56.3,32.51v128.54c0,28.89,31.28,46.96,56.3,32.51l55.66-32.13,55.65-32.13c25.03-14.45,25.03-50.57,0-65.02ZM-3365.36-4097.95l-54.24,31.32-54.25,31.32c-10.02,5.78-22.53-1.44-22.53-13.01v-125.27c0-11.56,12.52-18.79,22.53-13.01l54.25,31.32,54.24,31.32c10.02,5.78,10.02,20.24,0,26.02Z"/>
  <path class="st1" d="M-2591.04-4211.05c-.34-1.24-1.07-2.33-2.07-3.2l35.98-56.1c1.6.2,3.25-.49,4.17-1.94,1.28-2.01.7-4.67-1.31-5.96-2-1.29-4.67-.7-5.96,1.3-.93,1.45-.87,3.23-.02,4.6l-36.11,56.31c-1.6-.51-3.41-.68-5.3-.4-1.89.28-3.58.96-4.96,1.9l-50.73-43.61c.42-1.56-.04-3.28-1.34-4.4-1.81-1.55-4.53-1.35-6.09.46-1.55,1.81-1.35,4.53.46,6.08,1.3,1.12,3.08,1.31,4.55.66l50.54,43.45c-.71,1.13-1.1,2.38-1.06,3.66l-72.53,10.6c-10.22,1.5-16.97,11.43-14.58,21.48l32.26,117.14-14.74-107.94c-.99-8.91,4.88-17.14,13.62-19.11l176.44-39.79-101.22,14.8"/>
  <g>
    <path class="st16" d="M-3402.66-3754.44v7.08c-.64-.97-1.01-2.12-1.05-3.33-.04-1.35.34-2.66,1.05-3.75Z"/>
    <path class="st16" d="M-3308.05-3668.66c.09,3.66-2.55,6.54-5.93,6.86-3.3.3-6.53-1.94-7.01-5.6-.03-.19-.05-.38-.06-.57-.17-3.38-.45-6.18-1.09-9.2-1.76-8.4-4.75-16.35-8.77-23.64-8.8-15.96-22.53-28.81-39.15-36.5-5.66-2.62-11.66-4.63-17.91-5.97-3.13-.67-6.09-1.02-9.32-1.12-2.32-.08-4.25-1.25-5.37-2.96v-7.08c1.12-1.74,3.05-2.95,5.37-2.96,4.19-.03,8.09.51,12.15,1.38,5.19,1.11,10.23,2.64,15.08,4.54,21.53,8.4,39.38,24.15,50.47,44.17,4.67,8.42,8.14,17.61,10.19,27.31.49,2.32.85,4.56,1.07,6.84.15,1.47.24,2.96.28,4.5Z"/>
    <path class="st16" d="M-3403.67-3725.79c.12-.99.47-1.93,1.01-2.76v7.06c-.81-1.26-1.18-2.8-1.01-4.3Z"/>
    <path class="st16" d="M-3335.82-3663.72c-.96.95-2.2,1.62-3.54,1.84-1.63.27-3.42-.1-4.85-1.05,2.84-.12,5.64-.38,8.39-.79Z"/>
    <path class="st16" d="M-3403.61-3699.66c.15-.85.48-1.66.95-2.39v7.06c-.87-1.34-1.24-3-.95-4.67Z"/>
    <path class="st16" d="M-3363.37-3662.86c-.64.42-1.33.73-2.05.9-1.85.44-3.68.07-5.13-.9h7.18Z"/>
    <path class="st16" d="M-3393.6-3662.86c-1.04.69-2.28,1.09-3.61,1.09-3.59,0-6.51-2.92-6.51-6.51,0-1.31.39-2.53,1.06-3.56v3.85c0,3.48,1.83,5.13,5.5,5.13h3.56Z"/>
  </g>
  <path class="st16" d="M-3347.54-3821.26h-49.62c-3.67,0-5.5,1.46-5.5,4.39v62.43c1.12-1.74,3.05-2.95,5.37-2.96,4.19-.03,8.09.51,12.15,1.38,5.19,1.11,10.23,2.64,15.08,4.54v-36.45h22.52c24.91,0,45.23,20.87,45.23,45.04,0,14.48-6.77,27.31-17.28,35.58,4.67,8.42,8.14,17.61,10.19,27.31.49,2.32.85,4.56,1.07,6.84,24.02-13.61,40.27-39.35,40.27-68.99,0-43.59-35.53-79.11-79.48-79.11Z"/>
  <path class="st16" d="M-3390.7-3668.28c0,2.26-1.15,4.25-2.9,5.42h-3.56c-3.67,0-5.5-1.65-5.5-5.13v-3.85c1.17-1.78,3.17-2.95,5.45-2.95,3.59,0,6.51,2.92,6.51,6.51Z"/>
  <path class="st16" d="M-3363.37-3662.86h-7.18c-1.34-.89-2.36-2.3-2.77-4.06-2.95-12.65-12.62-22.32-25.26-25.26-1.78-.41-3.19-1.45-4.08-2.81v-7.06c1.33-2.08,3.83-3.47,6.55-2.89,17.67,3.79,31.56,17.51,35.53,35.34.64,2.91-.75,5.41-2.79,6.74Z"/>
  <path class="st16" d="M-3335.82-3663.72c-2.75.41-5.55.67-8.39.79-1.35-.9-2.38-2.31-2.63-4.18-1.56-11.59-6.33-22.08-13.39-30.55-2.91-3.49-6.21-6.64-9.83-9.38-8.04-6.08-17.69-10.17-28.22-11.57-1.91-.26-3.45-1.38-4.38-2.88v-7.06c1.27-1.96,3.55-3.27,6.1-2.94,9.54,1.22,18.5,4.29,26.5,8.85,10.54,6,19.43,14.57,25.81,24.86,5.33,8.58,8.91,18.36,10.26,28.84.26,2.03-.51,3.9-1.83,5.22Z"/>
  <path class="st15" d="M-3254.15-3720.91c0-26,16.66-50.18,45.05-56.58,3.66-.92,7.33-1.28,10.99-1.28,12.64,0,26,4.94,34.06,12.27,10.8,10.07,19.59,25.45,19.59,52.01,0,2.93-1.1,4.39-3.3,4.39h-71.6c.55,1.1,4.21,6.96,8.79,10.07,3.85,2.75,8.97,4.03,13.92,4.03,8.42,0,16.66-4.21,19.96-9.34.73-1.28,1.65-2.01,2.93-2.01.73,0,1.47.37,2.38.92l21.24,13.18c1.28.73,2.01,1.83,2.01,2.93,0,.73-.18,1.46-.73,2.2-9.89,14.83-28.57,24.9-47.25,24.9-31.68,0-58.05-26.74-58.05-57.68ZM-3192.44-3746.73l-4.76-.37c-6.23.37-8.79.37-13.92,3.85-2.75,2.01-4.76,4.03-5.68,6.04h37.54c-2.2-4.4-6.78-8.42-13.18-9.52Z"/>
  <path class="st15" d="M-3129.63-3720.91c0-26,16.66-50.18,45.05-56.58,3.66-.92,7.33-1.28,10.99-1.28,12.63,0,26,4.94,34.06,12.27,10.8,10.07,19.59,25.45,19.59,52.01,0,2.93-1.1,4.39-3.3,4.39h-71.6c.55,1.1,4.21,6.96,8.79,10.07,3.85,2.75,8.97,4.03,13.92,4.03,8.42,0,16.66-4.21,19.96-9.34.73-1.28,1.65-2.01,2.93-2.01.73,0,1.46.37,2.38.92l21.24,13.18c1.28.73,2.01,1.83,2.01,2.93,0,.73-.18,1.46-.73,2.2-9.89,14.83-28.57,24.9-47.25,24.9-31.68,0-58.05-26.74-58.05-57.68ZM-3067.92-3746.73l-4.76-.37c-6.23.37-8.79.37-13.92,3.85-2.75,2.01-4.76,4.03-5.68,6.04h37.54c-2.2-4.4-6.78-8.42-13.18-9.52Z"/>
  <path class="st15" d="M-2930.04-3662.86c-3.48,0-5.13-1.65-5.13-4.76v-56.22c0-14.28-8.24-21.61-18.86-21.61-7.51,0-13.55,3.48-17.95,10.44v67.39c0,3.11-1.83,4.76-5.49,4.76h-21.79c-3.48,0-5.13-1.65-5.13-4.76v-105.66c0-2.75,1.65-4.03,5.13-4.03h21.79c3.48,0,5.13,1.28,5.13,3.48l-.73,7.32c7.88-7.87,16.85-11.72,27.1-11.72,23.81,0,43.03,19.23,43.03,44.32v66.29c0,3.11-1.83,4.76-5.31,4.76h-21.79Z"/>
  <path class="st15" d="M-2881.88-3802.77c0-10.07,8.06-18.13,18.13-18.13s18.31,8.24,18.31,18.13-8.06,18.31-18.31,18.31-18.13-7.88-18.13-18.31ZM-2875.29-3662.86c-3.48,0-5.13-1.65-5.13-4.76v-104.75c0-2.75,1.65-4.03,5.13-4.03h21.79c3.48,0,5.31,1.28,5.31,4.03v104.75c0,3.11-1.83,4.76-5.31,4.76h-21.79Z"/>
  <path class="st15" d="M-2819.36-3680.99c0-10.44,8.24-18.31,18.13-18.31s18.31,8.06,18.31,18.31-7.87,18.13-18.31,18.13-18.13-8.06-18.13-18.13Z"/>
  <path class="st15" d="M-2715.97-3662.86c-21.61,0-39.55-14.1-39.55-40.47v-46.33h-17.58c-3.11,0-4.76-1.47-4.76-4.58v-16.66c0-3.66,1.65-5.49,4.76-5.49h17.58v-28.57c0-3.48,1.83-5.49,5.68-6.23l20.88-4.21,1.46-.18c2.93,0,4.21,1.65,4.21,4.76v34.43h18.31c2.75,0,4.03,1.83,4.03,5.49v16.66c0,3.11-1.28,4.58-4.03,4.58h-18.31v43.03c0,5.68,3.11,10.8,6.96,11.9,2.01.73,6.59,1.1,13.73,1.1,2.93,0,4.4,1.47,4.4,4.21v22.71c0,2.56-1.47,3.85-4.4,3.85h-13.37Z"/>
  <path class="st15" d="M-2644.92-3662.86c-2.01,0-3.48-1.65-4.76-5.13l-40.29-103.83c-.37-.73-.37-1.46-.37-2.01,0-1.65,1.46-2.56,4.39-2.56h26.37c2.2,0,3.66,1.1,4.58,3.48l24.17,63.73,23.99-63.91c.92-2.2,2.38-3.3,4.76-3.3h26.55c2.93,0,4.4.92,4.4,2.75,0,.55-.18,1.28-.55,2.01l-39.92,103.65c-1.28,3.48-2.93,5.13-4.94,5.13h-28.38Z"/>
  <path class="st15" d="M-2728.04-3843.33c-.34-1.24-1.07-2.33-2.07-3.2l35.98-56.1c1.6.2,3.25-.49,4.17-1.94,1.28-2.01.7-4.67-1.31-5.96-2-1.29-4.67-.7-5.96,1.3-.93,1.45-.87,3.23-.02,4.6l-36.11,56.31c-1.6-.51-3.41-.68-5.3-.4-1.89.28-3.58.96-4.96,1.9l-50.73-43.61c.42-1.56-.04-3.28-1.34-4.4-1.81-1.55-4.53-1.35-6.09.46-1.55,1.81-1.35,4.53.46,6.08,1.3,1.12,3.08,1.31,4.55.66l50.54,43.45c-.71,1.13-1.1,2.38-1.06,3.66l-72.53,10.6c-10.22,1.5-16.97,11.43-14.58,21.48l32.26,117.14-14.74-107.94c-.99-8.91,4.88-17.14,13.62-19.11l176.44-39.79-101.22,14.8"/>
  <polygon class="st16" points="-3409.55 -4183.18 -3427.15 -4193.34 -3434.09 -4226.95 -3419.23 -4230.02 -3409.55 -4183.18"/>
  <polygon class="st16" points="-3345.62 -4200.83 -3386.62 -4168.97 -3398.1 -4175.6 -3400.81 -4177.16 -3354.93 -4212.82 -3345.62 -4200.83"/>
  <circle class="st16" cx="-3338.82" cy="-4215.6" r="9"/>
  <path class="st13" d="M-3419.33-3237.79c-20.52,0-37.63-.28-54.73-.71-10.66-.27-21.31-.62-31.96-1.13-9.8-.46-19.6-1.01-29.37-1.92-7.25-.68-14.52-1.25-21.62-2.87-17.67-4.02-29.11-14.85-34.11-32.24-2.15-7.48-3.03-15.23-3.87-22.97-2.55-23.74-3.37-47.56-2.97-71.43.18-10.53.67-21.05,1.41-31.57.62-8.74,1.35-17.46,2.63-26.12,1.03-6.93,1.86-13.95,4.76-20.42,6.63-14.81,17.81-24,33.93-26.91,9.13-1.64,18.35-2.38,27.58-3.05,14.54-1.05,29.11-1.62,43.68-2.07,27.05-.83,54.1-1.19,81.16-.83,11.29.15,22.59.37,33.88.68,11.41.32,22.82.77,34.22,1.4,7.74.43,15.47.89,23.19,1.63,8.62.83,17.31,1.43,25.63,3.99,15.56,4.8,25.49,15.21,29.8,30.91,2.11,7.67,3.19,15.54,4.09,23.44,1.61,14.07,2.36,28.2,2.8,42.35.4,12.69.35,25.37-.1,38.05-.34,9.51-.85,19.02-1.67,28.51-.85,9.81-1.96,19.57-3.83,29.25-1.67,8.63-4.61,16.65-10.53,23.35-6.66,7.54-14.9,12.35-24.76,14.27-8.6,1.68-17.32,2.4-26.05,3.1-11.42.92-22.87,1.46-34.32,1.91-9.98.39-19.97.6-29.95.84-14.12.34-28.23.55-38.95.53Z"/>
  <g>
    <path class="st15" d="M-3211.87-3256.15c-3.66,0-5.49-1.65-5.49-5.13v-148.88c0-2.93,1.83-4.39,5.49-4.39h49.62c43.95,0,79.47,35.53,79.47,79.11s-35.71,79.29-79.47,79.29h-49.62ZM-3117.02-3336.17c0-24.17-20.33-45.05-45.23-45.05h-22.52v90.28h22.52c24.91,0,45.23-20.14,45.23-45.23Z"/>
    <path class="st15" d="M-3067.94-3314.11c0-26,16.66-50.18,45.05-56.58,3.66-.92,7.33-1.28,10.99-1.28,12.64,0,26,4.94,34.06,12.27,10.8,10.07,19.59,25.45,19.59,52.01,0,2.93-1.1,4.39-3.3,4.39h-71.6c.55,1.1,4.21,6.96,8.79,10.07,3.85,2.75,8.97,4.03,13.92,4.03,8.42,0,16.66-4.21,19.96-9.34.73-1.28,1.65-2.01,2.93-2.01.73,0,1.47.37,2.38.92l21.24,13.18c1.28.73,2.01,1.83,2.01,2.93,0,.73-.18,1.46-.73,2.2-9.89,14.83-28.57,24.9-47.25,24.9-31.68,0-58.05-26.74-58.05-57.68ZM-3006.23-3339.93l-4.76-.37c-6.23.37-8.79.37-13.92,3.85-2.75,2.01-4.76,4.03-5.68,6.04h37.54c-2.2-4.4-6.78-8.42-13.18-9.52Z"/>
    <path class="st15" d="M-2943.43-3314.11c0-26,16.66-50.18,45.05-56.58,3.66-.92,7.33-1.28,10.99-1.28,12.63,0,26,4.94,34.06,12.27,10.8,10.07,19.59,25.45,19.59,52.01,0,2.93-1.1,4.39-3.3,4.39h-71.6c.55,1.1,4.21,6.96,8.79,10.07,3.85,2.75,8.97,4.03,13.92,4.03,8.42,0,16.66-4.21,19.96-9.34.73-1.28,1.65-2.01,2.93-2.01.73,0,1.46.37,2.38.92l21.24,13.18c1.28.73,2.01,1.83,2.01,2.93,0,.73-.18,1.46-.73,2.2-9.89,14.83-28.57,24.9-47.25,24.9-31.68,0-58.05-26.74-58.05-57.68ZM-2881.71-3339.93l-4.76-.37c-6.23.37-8.79.37-13.92,3.85-2.75,2.01-4.76,4.03-5.68,6.04h37.54c-2.2-4.4-6.78-8.42-13.18-9.52Z"/>
    <path class="st15" d="M-2743.83-3256.06c-3.48,0-5.13-1.65-5.13-4.76v-56.22c0-14.28-8.24-21.61-18.86-21.61-7.51,0-13.55,3.48-17.95,10.44v67.39c0,3.11-1.83,4.76-5.49,4.76h-21.79c-3.48,0-5.13-1.65-5.13-4.76v-105.66c0-2.75,1.65-4.03,5.13-4.03h21.79c3.48,0,5.13,1.28,5.13,3.48l-.73,7.32c7.88-7.87,16.85-11.72,27.1-11.72,23.81,0,43.03,19.23,43.03,44.32v66.29c0,3.11-1.83,4.76-5.31,4.76h-21.79Z"/>
    <path class="st15" d="M-2695.67-3395.96c0-10.07,8.06-18.13,18.13-18.13s18.31,8.24,18.31,18.13-8.06,18.31-18.31,18.31-18.13-7.88-18.13-18.31ZM-2689.08-3256.06c-3.48,0-5.13-1.65-5.13-4.76v-104.75c0-2.75,1.65-4.03,5.13-4.03h21.79c3.48,0,5.31,1.28,5.31,4.03v104.75c0,3.11-1.83,4.76-5.31,4.76h-21.79Z"/>
    <path class="st15" d="M-2633.15-3274.19c0-10.44,8.24-18.31,18.13-18.31s18.31,8.06,18.31,18.31-7.87,18.13-18.31,18.13-18.13-8.06-18.13-18.13Z"/>
    <path class="st15" d="M-2529.76-3256.06c-21.61,0-39.55-14.1-39.55-40.47v-46.33h-17.58c-3.11,0-4.76-1.47-4.76-4.58v-16.66c0-3.66,1.65-5.49,4.76-5.49h17.58v-28.57c0-3.48,1.83-5.49,5.68-6.23l20.88-4.21,1.46-.18c2.93,0,4.21,1.65,4.21,4.76v34.43h18.31c2.75,0,4.03,1.83,4.03,5.49v16.66c0,3.11-1.28,4.58-4.03,4.58h-18.31v43.03c0,5.68,3.11,10.8,6.96,11.9,2.01.73,6.59,1.1,13.73,1.1,2.93,0,4.4,1.47,4.4,4.21v22.71c0,2.56-1.47,3.85-4.4,3.85h-13.37Z"/>
    <path class="st15" d="M-2458.72-3256.06c-2.01,0-3.48-1.65-4.76-5.13l-40.29-103.83c-.37-.73-.37-1.46-.37-2.01,0-1.65,1.46-2.56,4.39-2.56h26.37c2.2,0,3.66,1.1,4.58,3.48l24.17,63.73,23.99-63.91c.92-2.2,2.38-3.3,4.76-3.3h26.55c2.93,0,4.4.92,4.4,2.75,0,.55-.18,1.28-.55,2.01l-39.92,103.65c-1.28,3.48-2.93,5.13-4.94,5.13h-28.38Z"/>
    <path class="st15" d="M-2541.83-3436.53c-.34-1.24-1.07-2.33-2.07-3.2l35.98-56.1c1.6.2,3.25-.49,4.17-1.94,1.28-2.01.7-4.67-1.31-5.96-2-1.29-4.67-.7-5.96,1.3-.93,1.45-.87,3.23-.02,4.6l-36.11,56.31c-1.6-.51-3.41-.68-5.3-.4s-3.58.96-4.96,1.9l-50.73-43.61c.42-1.56-.04-3.28-1.34-4.4-1.81-1.55-4.53-1.35-6.09.46-1.55,1.81-1.35,4.53.46,6.08,1.3,1.12,3.08,1.31,4.55.66l50.54,43.45c-.71,1.13-1.1,2.38-1.06,3.66l-72.53,10.6c-10.22,1.5-16.97,11.43-14.58,21.48l32.26,117.14-14.74-107.94c-.99-8.91,4.88-17.14,13.62-19.11l176.44-39.79-101.22,14.8"/>
  </g>
  <g>
    <path class="st11" d="M-3361.56-3297.59c-3.08,3.71-8.51,3.85-11.94,1.01-3.74-3.1-4.09-8.5-1.07-12.17,26.05-31.67,25.94-77.38-.16-108.97-3.03-3.67-2.27-9.21,1.42-12.09,3.8-2.96,9.02-2.19,12,1.42,31.2,37.9,31.22,92.92-.25,130.79Z"/>
    <path class="st11" d="M-3472.57-3308.96c3.14,3.82,2.91,8.98-.73,12.23-3.35,2.99-9,2.86-12-.73-31.54-37.78-31.64-92.91-.39-130.88,2.99-3.63,8.18-4.43,11.99-1.49,3.74,2.9,4.48,8.48,1.43,12.15-26.15,31.55-26.4,76.95-.3,108.72Z"/>
    <path class="st11" d="M-3380.14-3333.15c-2.46,4.29-7.62,5.34-11.67,3.16-3.96-2.14-5.71-7.37-3.27-11.59,7.84-13.6,7.89-30.21-.23-43.71-2.71-4.5-.76-10.15,3.67-12.19,5.23-2.4,9.49.47,11.91,5.08,9.8,18.62,10.24,40.65-.42,59.25Z"/>
    <path class="st11" d="M-3452.05-3341.72c2.53,4.39.77,9.56-3.19,11.73-4.23,2.33-9.26.86-11.68-3.42-10.48-18.51-10.54-41.04-.1-59.58,2.37-4.21,7.48-5.62,11.58-3.39,3.98,2.17,5.73,7.37,3.34,11.57-7.62,13.39-7.73,29.54.05,43.07Z"/>
    <circle class="st11" cx="-3423.53" cy="-3363.12" r="17.12"/>
  </g>
  <g>
    <path class="st16" d="M-3404.99-2608.5c3.83,2.21,3.83,7.75,0,9.96l-31.6,18.24-31.6,18.24c-3.83,2.21-8.63-.55-8.63-4.98v-72.97c0-4.43,4.79-7.19,8.63-4.98l31.6,18.24,31.6,18.24Z"/>
    <path class="st16" d="M-3361.71-2634.24l-52.59-30.37-52.6-30.37c-23.64-13.65-53.2,3.42-53.2,30.72v121.47c0,27.31,29.56,44.37,53.2,30.72l52.6-30.37,52.59-30.37c23.66-13.65,23.66-47.79,0-61.44ZM-3373.68-2591.22l-51.26,29.6-51.27,29.6c-9.47,5.46-21.29-1.36-21.29-12.29v-118.38c0-10.92,11.83-17.75,21.29-12.29l51.27,29.6,51.26,29.6c9.47,5.46,9.47,19.13,0,24.59Z"/>
  </g>
  <g>
    <path class="st15" d="M-3249.99-2506.98c-3.74,0-5.62-1.69-5.62-5.24v-152.18c0-2.99,1.87-4.49,5.62-4.49h50.73c44.92,0,81.24,36.31,81.24,80.86s-36.5,81.05-81.24,81.05h-50.73ZM-3153.03-2588.78c0-24.71-20.78-46.05-46.24-46.05h-23.02v92.28h23.02c25.46,0,46.24-20.59,46.24-46.23Z"/>
    <path class="st15" d="M-3102.87-2566.22c0-26.58,17.03-51.29,46.05-57.84,3.74-.94,7.49-1.31,11.23-1.31,12.92,0,26.58,5.05,34.82,12.54,11.04,10.3,20.03,26.02,20.03,53.16,0,2.99-1.12,4.49-3.37,4.49h-73.19c.56,1.12,4.31,7.11,8.99,10.29,3.93,2.81,9.17,4.12,14.23,4.12,8.61,0,17.03-4.31,20.4-9.55.75-1.31,1.69-2.06,2.99-2.06.75,0,1.5.37,2.43.94l21.71,13.48c1.31.75,2.06,1.87,2.06,3,0,.75-.19,1.5-.75,2.25-10.11,15.16-29.2,25.46-48.29,25.46-32.38,0-59.34-27.33-59.34-58.96ZM-3039.79-2592.61l-4.87-.37c-6.36.37-8.98.37-14.23,3.93-2.81,2.06-4.87,4.12-5.8,6.18h38.37c-2.25-4.49-6.93-8.61-13.48-9.73Z"/>
    <path class="st15" d="M-2975.59-2566.22c0-26.58,17.03-51.29,46.05-57.84,3.74-.94,7.49-1.31,11.23-1.31,12.92,0,26.58,5.05,34.82,12.54,11.04,10.3,20.03,26.02,20.03,53.16,0,2.99-1.12,4.49-3.37,4.49h-73.19c.56,1.12,4.31,7.11,8.99,10.29,3.93,2.81,9.17,4.12,14.23,4.12,8.61,0,17.03-4.31,20.4-9.55.75-1.31,1.69-2.06,3-2.06.75,0,1.5.37,2.43.94l21.71,13.48c1.31.75,2.06,1.87,2.06,3,0,.75-.19,1.5-.75,2.25-10.11,15.16-29.2,25.46-48.29,25.46-32.38,0-59.34-27.33-59.34-58.96ZM-2912.5-2592.61l-4.87-.37c-6.36.37-8.99.37-14.23,3.93-2.81,2.06-4.87,4.12-5.8,6.18h38.37c-2.25-4.49-6.93-8.61-13.48-9.73Z"/>
    <path class="st15" d="M-2771.56-2506.88c-3.56,0-5.24-1.69-5.24-4.87v-57.47c0-14.6-8.42-22.09-19.28-22.09-7.67,0-13.85,3.56-18.34,10.67v68.88c0,3.18-1.87,4.87-5.62,4.87h-22.27c-3.56,0-5.24-1.69-5.24-4.87v-108.01c0-2.81,1.69-4.12,5.24-4.12h22.27c3.56,0,5.24,1.31,5.24,3.56l-.75,7.49c8.05-8.05,17.22-11.98,27.7-11.98,24.33,0,43.99,19.65,43.99,45.3v67.76c0,3.18-1.87,4.87-5.43,4.87h-22.27Z"/>
    <path class="st15" d="M-2722.33-2649.89c0-10.29,8.24-18.53,18.53-18.53s18.72,8.42,18.72,18.53-8.24,18.72-18.72,18.72-18.53-8.05-18.53-18.72ZM-2715.59-2506.88c-3.56,0-5.24-1.69-5.24-4.87v-107.07c0-2.81,1.69-4.12,5.24-4.12h22.28c3.56,0,5.43,1.31,5.43,4.12v107.07c0,3.18-1.87,4.87-5.43,4.87h-22.28Z"/>
    <path class="st15" d="M-2658.43-2525.41c0-10.67,8.42-18.72,18.53-18.72s18.72,8.24,18.72,18.72-8.05,18.53-18.72,18.53-18.53-8.24-18.53-18.53Z"/>
    <path class="st15" d="M-2552.74-2506.88c-22.09,0-40.43-14.41-40.43-41.37v-47.36h-17.97c-3.18,0-4.87-1.5-4.87-4.68v-17.03c0-3.74,1.69-5.62,4.87-5.62h17.97v-29.2c0-3.56,1.87-5.62,5.8-6.36l21.34-4.31,1.5-.19c2.99,0,4.31,1.69,4.31,4.87v35.19h18.72c2.81,0,4.12,1.87,4.12,5.62v17.03c0,3.18-1.31,4.68-4.12,4.68h-18.72v43.99c0,5.8,3.18,11.04,7.11,12.17,2.06.75,6.74,1.12,14.04,1.12,2.99,0,4.49,1.5,4.49,4.31v23.21c0,2.62-1.5,3.93-4.49,3.93h-13.66Z"/>
    <path class="st15" d="M-2480.12-2506.88c-2.06,0-3.56-1.69-4.87-5.24l-41.18-106.13c-.37-.75-.37-1.5-.37-2.06,0-1.69,1.5-2.62,4.49-2.62h26.96c2.25,0,3.74,1.12,4.68,3.56l24.71,65.14,24.52-65.33c.94-2.25,2.43-3.37,4.87-3.37h27.14c3,0,4.49.94,4.49,2.81,0,.56-.19,1.31-.56,2.06l-40.81,105.95c-1.31,3.56-3,5.24-5.05,5.24h-29.01Z"/>
    <path class="st15" d="M-2565.07-2691.36c-.35-1.27-1.09-2.38-2.12-3.28l36.77-57.34c1.64.21,3.32-.5,4.27-1.98,1.31-2.05.72-4.78-1.34-6.09-2.05-1.32-4.78-.72-6.09,1.33-.95,1.48-.89,3.3-.02,4.7l-36.91,57.56c-1.63-.52-3.49-.69-5.42-.41-1.93.28-3.66.98-5.07,1.94l-51.86-44.58c.43-1.59-.04-3.36-1.37-4.5-1.85-1.59-4.63-1.38-6.22.47s-1.38,4.63.47,6.22c1.33,1.14,3.15,1.34,4.66.68l51.66,44.41c-.73,1.15-1.12,2.43-1.09,3.74l-74.13,10.84c-10.45,1.53-17.34,11.68-14.91,21.96l32.97,119.74-15.07-110.33c-1.01-9.1,4.99-17.52,13.93-19.54l180.35-40.67-103.47,15.12"/>
  </g>
  <g>
    <path class="st15" d="M-3545.07-2561.76c2.42,2.94,2.25,6.92-.56,9.43-2.58,2.31-6.94,2.2-9.25-.57-24.31-29.13-24.39-71.63-.3-100.9,2.3-2.8,6.31-3.42,9.24-1.15,2.89,2.23,3.45,6.54,1.1,9.37-20.16,24.32-20.35,59.32-.23,83.81Z"/>
    <path class="st15" d="M-3529.25-2587.02c1.95,3.39.59,7.37-2.46,9.05-3.26,1.8-7.14.66-9-2.63-8.08-14.27-8.13-31.64-.07-45.93,1.83-3.25,5.77-4.33,8.93-2.61,3.07,1.68,4.42,5.68,2.57,8.92-5.88,10.32-5.96,22.77.04,33.21Z"/>
  </g>
  <g>
    <path class="st15" d="M-3322.17-2561.76c-2.42,2.94-2.25,6.92.56,9.43,2.58,2.31,6.94,2.2,9.25-.57,24.31-29.13,24.39-71.63.3-100.9-2.3-2.8-6.31-3.42-9.24-1.15-2.89,2.23-3.45,6.54-1.1,9.37,20.16,24.32,20.35,59.32.23,83.81Z"/>
    <path class="st15" d="M-3337.99-2587.02c-1.95,3.39-.59,7.37,2.46,9.05,3.26,1.8,7.14.66,9-2.63,8.08-14.27,8.13-31.64.07-45.93-1.83-3.25-5.77-4.33-8.93-2.61-3.07,1.68-4.42,5.68-2.57,8.92,5.88,10.32,5.96,22.77-.04,33.21Z"/>
  </g>
  <path class="st16" d="M-3309.12-3034.64l-61.01-35.23-61.02-35.23c-27.43-15.84-61.72,3.96-61.72,35.64v140.91c0,31.68,34.29,51.48,61.72,35.64l61.02-35.23,61.01-35.23c27.44-15.84,27.44-55.44,0-71.28ZM-3323.01-2984.74l-59.46,34.33-59.47,34.33c-10.98,6.34-24.7-1.58-24.7-14.26v-137.33c0-12.67,13.72-20.6,24.7-14.26l59.47,34.33,59.46,34.33c10.98,6.34,10.98,22.19,0,28.52Z"/>
  <g>
    <path class="st15" d="M-3244.47-2912.47c-3.66,0-5.49-1.65-5.49-5.13v-148.88c0-2.93,1.83-4.39,5.49-4.39h49.62c43.95,0,79.47,35.53,79.47,79.11s-35.71,79.29-79.47,79.29h-49.62ZM-3149.61-2992.49c0-24.17-20.33-45.05-45.23-45.05h-22.52v90.28h22.52c24.91,0,45.23-20.14,45.23-45.23Z"/>
    <path class="st15" d="M-3100.54-2970.43c0-26,16.66-50.18,45.05-56.58,3.66-.92,7.33-1.28,10.99-1.28,12.64,0,26,4.94,34.06,12.27,10.8,10.07,19.59,25.45,19.59,52.01,0,2.93-1.1,4.39-3.3,4.39h-71.6c.55,1.1,4.21,6.96,8.79,10.07,3.85,2.75,8.97,4.03,13.92,4.03,8.42,0,16.66-4.21,19.96-9.34.73-1.28,1.65-2.01,2.93-2.01.73,0,1.47.37,2.38.92l21.24,13.18c1.28.73,2.01,1.83,2.01,2.93,0,.73-.18,1.46-.73,2.2-9.89,14.83-28.57,24.9-47.25,24.9-31.68,0-58.05-26.74-58.05-57.68ZM-3038.83-2996.25l-4.76-.37c-6.23.37-8.79.37-13.92,3.85-2.75,2.01-4.76,4.03-5.68,6.04h37.54c-2.2-4.4-6.78-8.42-13.18-9.52Z"/>
    <path class="st15" d="M-2976.02-2970.43c0-26,16.66-50.18,45.05-56.58,3.66-.92,7.33-1.28,10.99-1.28,12.63,0,26,4.94,34.06,12.27,10.8,10.07,19.59,25.45,19.59,52.01,0,2.93-1.1,4.39-3.3,4.39h-71.6c.55,1.1,4.21,6.96,8.79,10.07,3.85,2.75,8.97,4.03,13.92,4.03,8.42,0,16.66-4.21,19.96-9.34.73-1.28,1.65-2.01,2.93-2.01.73,0,1.46.37,2.38.92l21.24,13.18c1.28.73,2.01,1.83,2.01,2.93,0,.73-.18,1.46-.73,2.2-9.89,14.83-28.57,24.9-47.25,24.9-31.68,0-58.05-26.74-58.05-57.68ZM-2914.31-2996.25l-4.76-.37c-6.23.37-8.79.37-13.92,3.85-2.75,2.01-4.76,4.03-5.68,6.04h37.54c-2.2-4.4-6.78-8.42-13.18-9.52Z"/>
    <path class="st15" d="M-2776.42-2912.38c-3.48,0-5.13-1.65-5.13-4.76v-56.22c0-14.28-8.24-21.61-18.86-21.61-7.51,0-13.55,3.48-17.95,10.44v67.39c0,3.11-1.83,4.76-5.49,4.76h-21.79c-3.48,0-5.13-1.65-5.13-4.76v-105.66c0-2.75,1.65-4.03,5.13-4.03h21.79c3.48,0,5.13,1.28,5.13,3.48l-.73,7.32c7.88-7.87,16.85-11.72,27.1-11.72,23.81,0,43.03,19.23,43.03,44.32v66.29c0,3.11-1.83,4.76-5.31,4.76h-21.79Z"/>
    <path class="st15" d="M-2728.26-3052.28c0-10.07,8.06-18.13,18.13-18.13s18.31,8.24,18.31,18.13-8.06,18.31-18.31,18.31-18.13-7.88-18.13-18.31ZM-2721.67-2912.38c-3.48,0-5.13-1.65-5.13-4.76v-104.75c0-2.75,1.65-4.03,5.13-4.03h21.79c3.48,0,5.31,1.28,5.31,4.03v104.75c0,3.11-1.83,4.76-5.31,4.76h-21.79Z"/>
    <path class="st15" d="M-2665.75-2930.51c0-10.44,8.24-18.31,18.13-18.31s18.31,8.06,18.31,18.31-7.87,18.13-18.31,18.13-18.13-8.06-18.13-18.13Z"/>
    <path class="st15" d="M-2562.36-2912.38c-21.61,0-39.55-14.1-39.55-40.47v-46.33h-17.58c-3.11,0-4.76-1.47-4.76-4.58v-16.66c0-3.66,1.65-5.49,4.76-5.49h17.58v-28.57c0-3.48,1.83-5.49,5.68-6.23l20.88-4.21,1.46-.18c2.93,0,4.21,1.65,4.21,4.76v34.43h18.31c2.75,0,4.03,1.83,4.03,5.49v16.66c0,3.11-1.28,4.58-4.03,4.58h-18.31v43.03c0,5.68,3.11,10.8,6.96,11.9,2.01.73,6.59,1.1,13.73,1.1,2.93,0,4.4,1.47,4.4,4.21v22.71c0,2.56-1.47,3.85-4.4,3.85h-13.37Z"/>
    <path class="st15" d="M-2491.31-2912.38c-2.01,0-3.48-1.65-4.76-5.13l-40.29-103.83c-.37-.73-.37-1.46-.37-2.01,0-1.65,1.46-2.56,4.39-2.56h26.37c2.2,0,3.66,1.1,4.58,3.48l24.17,63.73,23.99-63.91c.92-2.2,2.38-3.3,4.76-3.3h26.55c2.93,0,4.4.92,4.4,2.75,0,.55-.18,1.28-.55,2.01l-39.92,103.65c-1.28,3.48-2.93,5.13-4.94,5.13h-28.38Z"/>
    <path class="st15" d="M-2574.42-3092.85c-.34-1.24-1.07-2.33-2.07-3.2l35.98-56.1c1.6.2,3.25-.49,4.17-1.94,1.28-2.01.7-4.67-1.31-5.96-2-1.29-4.67-.7-5.96,1.3-.93,1.45-.87,3.23-.02,4.6l-36.11,56.31c-1.6-.51-3.41-.68-5.3-.4s-3.58.96-4.96,1.9l-50.73-43.61c.42-1.56-.04-3.28-1.34-4.4-1.81-1.55-4.53-1.35-6.09.46-1.55,1.81-1.35,4.53.46,6.08,1.3,1.12,3.08,1.31,4.55.66l50.54,43.45c-.71,1.13-1.1,2.38-1.06,3.66l-72.53,10.6c-10.22,1.5-16.97,11.43-14.58,21.48l32.26,117.14-14.74-107.94c-.99-8.91,4.88-17.14,13.62-19.11l176.44-39.79-101.22,14.8"/>
  </g>
  <g>
    <path class="st15" d="M-3373.98-2963.08c-1.69,2.03-4.66,2.11-6.54.55-2.05-1.7-2.24-4.66-.59-6.67,14.28-17.36,14.22-42.42-.09-59.73-1.66-2.01-1.24-5.05.78-6.63,2.08-1.62,4.94-1.2,6.58.78,17.1,20.77,17.11,50.93-.13,71.69Z"/>
    <path class="st15" d="M-3434.83-2969.32c1.72,2.09,1.6,4.92-.4,6.71-1.84,1.64-4.93,1.57-6.58-.4-17.29-20.71-17.34-50.93-.21-71.74,1.64-1.99,4.48-2.43,6.57-.82,2.05,1.59,2.45,4.65.78,6.66-14.33,17.29-14.47,42.18-.17,59.59Z"/>
    <path class="st15" d="M-3384.16-2982.57c-1.35,2.35-4.18,2.93-6.39,1.73-2.17-1.17-3.13-4.04-1.79-6.35,4.3-7.45,4.33-16.56-.12-23.96-1.49-2.47-.42-5.56,2.01-6.68,2.86-1.32,5.2.26,6.53,2.78,5.37,10.2,5.61,22.28-.23,32.48Z"/>
    <path class="st15" d="M-3423.58-2987.28c1.39,2.41.42,5.24-1.75,6.43-2.32,1.28-5.07.47-6.4-1.87-5.75-10.15-5.78-22.5-.05-32.66,1.3-2.31,4.1-3.08,6.35-1.86,2.18,1.19,3.14,4.04,1.83,6.34-4.18,7.34-4.24,16.19.03,23.61Z"/>
    <circle class="st15" cx="-3407.95" cy="-2999" r="9.38"/>
  </g>
  <path class="st1" d="M-2015.81-2965.56v-15.71c2.16-22.49,10.84-43.25,26.14-59.89,2.08-2.53,4.22-4.5,6.67-6.72,20.79-18.82,47.05-27.82,75.15-25.93,25.5,1.72,49.98,13.67,67.09,32.62,18.73,20.75,27.88,47.17,25.91,75.15-1.56,22.18-10.4,43-25.21,59.51-1.48,1.66-2.63,3.42-4.45,4.54-2.94,1.8-6.52.87-8.19-1.74-1.85-2.89-.9-5.97,1.48-8.42,32.19-33.1,32.87-86.49,1.7-120.67-1.12-1.23-2.12-2.39-3.26-3.44l-4.5-4.17c-13.55-12.54-31.03-19.37-49.38-21.26-1.62-.17-3.1.06-4.65-.19-2.71-.44-5.17-.43-7.89,0-1.55.25-3.02.03-4.66.2-22.9,2.36-43.32,12.95-58.4,30.29-29.95,34.42-28.67,86.7,2.98,119.24,2.38,2.45,3.33,5.53,1.49,8.42-1.68,2.62-5.24,3.53-8.19,1.75-1.84-1.11-2.94-2.92-4.42-4.54-14.99-16.49-23.29-37.19-25.42-59.04Z"/>
  <path class="st1" d="M-1909.05-3036.49c-17.93-1.59-34.42,3.64-47.95,15.35-12.03,10.41-19.89,25.67-21.31,41.54-1.55,17.25,3.09,32.54,13.7,46.07,2.15,2.74,1.17,6.61-1.4,8.4-2.83,1.97-6.21,1.28-8.51-1.66-19.16-24.52-21.62-58.19-5.53-85.12,3.94-6.59,8.69-12.41,14.18-17.37,28.87-26.08,72.43-26.11,101.28,0,14.21,12.86,23.24,30.99,24.61,50.56,1.32,18.76-4.51,37.43-16.14,52.13-1.43,1.8-3.45,2.92-5.57,2.6-2.21-.33-4.05-1.89-4.74-3.45-1.02-2.32-.63-4.66.87-6.55,10.46-13.24,14.91-28.77,13.39-45.6-2.71-29.95-27.03-54.24-56.88-56.89Z"/>
  <path class="st1" d="M-1880.81-2956.59c7.57-16.3,3.34-35.44-10.44-46.52-13.94-11.21-33.72-11.29-47.76-.18-13.93,11.03-18.28,30.35-10.68,46.57,1.46,3.12-.69,6.69-3.34,7.67-3.21,1.19-6.51-.34-7.88-3.46-3.62-8.26-5.19-16.63-4.32-25.61,2.66-27.64,27.4-47.92,54.69-45.29,23.98,2.32,42.92,21.32,45.3,45.3.9,9.02-.76,17.27-4.33,25.59-1.33,3.11-4.35,4.59-7.59,3.57-2.58-.81-5.21-4.28-3.64-7.65Z"/>
  <g>
    <path class="st1" d="M-1866.09-2862.68h-98.21c-8.43-1.95-14.84-7.71-14.1-16.88.34-4.27,2.21-7.79,4.38-11.54l44.44-76.8c2.98-5.15,8.49-8.82,14.38-8.82s11.4,3.67,14.38,8.82l44.29,76.49c2.15,3.72,4.04,7.2,4.5,11.44,1.02,9.54-5.72,15.4-14.06,17.3Z"/>
    <path class="st16" d="M-1868.41-2876.37h-93.43c-.98.01-2.03-.67-2.43-1.11-.45-.5-.52-1.96.02-2.9l46.7-80.89c.5-.87,1.58-1.4,2.17-1.48.7-.1,1.97.51,2.53,1.48l46.69,80.86c.49.85.41,2.09.19,2.64s-1.15,1.39-2.45,1.39Z"/>
  </g>
  <g>
    <path class="st15" d="M-1757.55-2862.41c-3.66,0-5.49-1.65-5.49-5.13v-148.88c0-2.93,1.83-4.39,5.49-4.39h49.62c43.95,0,79.47,35.53,79.47,79.11s-35.71,79.29-79.47,79.29h-49.62ZM-1662.69-2942.43c0-24.17-20.33-45.05-45.23-45.05h-22.52v90.28h22.52c24.91,0,45.23-20.14,45.23-45.23Z"/>
    <path class="st15" d="M-1613.62-2920.37c0-26,16.66-50.18,45.05-56.58,3.66-.92,7.33-1.28,10.99-1.28,12.64,0,26,4.94,34.06,12.27,10.8,10.07,19.59,25.45,19.59,52.01,0,2.93-1.1,4.39-3.3,4.39h-71.6c.55,1.1,4.21,6.96,8.79,10.07,3.85,2.75,8.97,4.03,13.92,4.03,8.42,0,16.66-4.21,19.96-9.34.73-1.28,1.65-2.01,2.93-2.01.73,0,1.47.37,2.38.92l21.24,13.18c1.28.73,2.01,1.83,2.01,2.93,0,.73-.18,1.46-.73,2.2-9.89,14.83-28.57,24.9-47.25,24.9-31.68,0-58.05-26.74-58.05-57.68ZM-1551.91-2946.19l-4.76-.37c-6.23.37-8.79.37-13.92,3.85-2.75,2.01-4.76,4.03-5.68,6.04h37.54c-2.2-4.4-6.78-8.42-13.18-9.52Z"/>
    <path class="st15" d="M-1489.1-2920.37c0-26,16.66-50.18,45.05-56.58,3.66-.92,7.33-1.28,10.99-1.28,12.63,0,26,4.94,34.06,12.27,10.8,10.07,19.59,25.45,19.59,52.01,0,2.93-1.1,4.39-3.3,4.39h-71.6c.55,1.1,4.21,6.96,8.79,10.07,3.85,2.75,8.97,4.03,13.92,4.03,8.42,0,16.66-4.21,19.96-9.34.73-1.28,1.65-2.01,2.93-2.01.73,0,1.46.37,2.38.92l21.24,13.18c1.28.73,2.01,1.83,2.01,2.93,0,.73-.18,1.46-.73,2.2-9.89,14.83-28.57,24.9-47.25,24.9-31.68,0-58.05-26.74-58.05-57.68ZM-1427.39-2946.19l-4.76-.37c-6.23.37-8.79.37-13.92,3.85-2.75,2.01-4.76,4.03-5.68,6.04h37.54c-2.2-4.4-6.78-8.42-13.18-9.52Z"/>
    <path class="st15" d="M-1289.5-2862.32c-3.48,0-5.13-1.65-5.13-4.76v-56.22c0-14.28-8.24-21.61-18.86-21.61-7.51,0-13.55,3.48-17.95,10.44v67.39c0,3.11-1.83,4.76-5.49,4.76h-21.79c-3.48,0-5.13-1.65-5.13-4.76v-105.66c0-2.75,1.65-4.03,5.13-4.03h21.79c3.48,0,5.13,1.28,5.13,3.48l-.73,7.32c7.88-7.87,16.85-11.72,27.1-11.72,23.81,0,43.03,19.23,43.03,44.32v66.29c0,3.11-1.83,4.76-5.31,4.76h-21.79Z"/>
    <path class="st15" d="M-1241.34-3002.22c0-10.07,8.06-18.13,18.13-18.13s18.31,8.24,18.31,18.13-8.06,18.31-18.31,18.31-18.13-7.88-18.13-18.31ZM-1234.75-2862.32c-3.48,0-5.13-1.65-5.13-4.76v-104.75c0-2.75,1.65-4.03,5.13-4.03h21.79c3.48,0,5.31,1.28,5.31,4.03v104.75c0,3.11-1.83,4.76-5.31,4.76h-21.79Z"/>
    <path class="st15" d="M-1178.83-2880.45c0-10.44,8.24-18.31,18.13-18.31s18.31,8.06,18.31,18.31-7.87,18.13-18.31,18.13-18.13-8.06-18.13-18.13Z"/>
    <path class="st15" d="M-1075.44-2862.32c-21.61,0-39.55-14.1-39.55-40.47v-46.33h-17.58c-3.11,0-4.76-1.47-4.76-4.58v-16.66c0-3.66,1.65-5.49,4.76-5.49h17.58v-28.57c0-3.48,1.83-5.49,5.68-6.23l20.88-4.21,1.46-.18c2.93,0,4.21,1.65,4.21,4.76v34.43h18.31c2.75,0,4.03,1.83,4.03,5.49v16.66c0,3.11-1.28,4.58-4.03,4.58h-18.31v43.03c0,5.68,3.11,10.8,6.96,11.9,2.01.73,6.59,1.1,13.73,1.1,2.93,0,4.4,1.47,4.4,4.21v22.71c0,2.56-1.47,3.85-4.4,3.85h-13.37Z"/>
    <path class="st15" d="M-1004.39-2862.32c-2.01,0-3.48-1.65-4.76-5.13l-40.29-103.83c-.37-.73-.37-1.46-.37-2.01,0-1.65,1.46-2.56,4.39-2.56h26.37c2.2,0,3.66,1.1,4.58,3.48l24.17,63.73,23.99-63.91c.92-2.2,2.38-3.3,4.76-3.3h26.55c2.93,0,4.4.92,4.4,2.75,0,.55-.18,1.28-.55,2.01l-39.92,103.65c-1.28,3.48-2.93,5.13-4.94,5.13h-28.38Z"/>
    <path class="st15" d="M-1087.5-3042.79c-.34-1.24-1.07-2.33-2.07-3.2l35.98-56.1c1.6.2,3.25-.49,4.17-1.94,1.28-2.01.7-4.67-1.31-5.96-2-1.29-4.67-.7-5.96,1.3-.93,1.45-.87,3.23-.02,4.6l-36.11,56.31c-1.6-.51-3.41-.68-5.3-.4s-3.58.96-4.96,1.9l-50.73-43.61c.42-1.56-.04-3.28-1.34-4.4-1.81-1.55-4.53-1.35-6.09.46s-1.35,4.53.46,6.08c1.3,1.12,3.08,1.31,4.55.66l50.54,43.45c-.71,1.13-1.1,2.38-1.06,3.66l-72.53,10.6c-10.22,1.5-16.97,11.43-14.58,21.48l32.26,117.14-14.74-107.94c-.99-8.91,4.88-17.14,13.62-19.11l176.44-39.79-101.22,14.8"/>
  </g>
  <path class="st15" d="M-1754.6-2506.37c-3.74,0-5.62-1.69-5.62-5.24v-152.18c0-2.99,1.87-4.49,5.62-4.49h50.73c44.92,0,81.24,36.31,81.24,80.86s-36.5,81.05-81.24,81.05h-50.73ZM-1657.64-2588.17c0-24.71-20.78-46.05-46.24-46.05h-23.02v92.28h23.02c25.46,0,46.24-20.59,46.24-46.23Z"/>
  <path class="st15" d="M-1607.48-2565.61c0-26.58,17.03-51.29,46.05-57.84,3.74-.94,7.49-1.31,11.23-1.31,12.92,0,26.58,5.05,34.82,12.54,11.04,10.3,20.03,26.02,20.03,53.16,0,2.99-1.12,4.49-3.37,4.49h-73.19c.56,1.12,4.31,7.11,8.99,10.29,3.93,2.81,9.17,4.12,14.23,4.12,8.61,0,17.03-4.31,20.4-9.55.75-1.31,1.69-2.06,2.99-2.06.75,0,1.5.37,2.43.94l21.71,13.48c1.31.75,2.06,1.87,2.06,3,0,.75-.19,1.5-.75,2.25-10.11,15.16-29.2,25.46-48.29,25.46-32.38,0-59.34-27.33-59.34-58.96ZM-1544.4-2592.01l-4.87-.37c-6.36.37-8.98.37-14.23,3.93-2.81,2.06-4.87,4.12-5.8,6.18h38.37c-2.25-4.49-6.93-8.61-13.48-9.73Z"/>
  <path class="st15" d="M-1480.2-2565.61c0-26.58,17.03-51.29,46.05-57.84,3.74-.94,7.49-1.31,11.23-1.31,12.92,0,26.58,5.05,34.82,12.54,11.04,10.3,20.03,26.02,20.03,53.16,0,2.99-1.12,4.49-3.37,4.49h-73.19c.56,1.12,4.31,7.11,8.99,10.29,3.93,2.81,9.17,4.12,14.23,4.12,8.61,0,17.03-4.31,20.4-9.55.75-1.31,1.69-2.06,3-2.06.75,0,1.5.37,2.43.94l21.71,13.48c1.31.75,2.06,1.87,2.06,3,0,.75-.19,1.5-.75,2.25-10.11,15.16-29.2,25.46-48.29,25.46-32.38,0-59.34-27.33-59.34-58.96ZM-1417.11-2592.01l-4.87-.37c-6.36.37-8.99.37-14.23,3.93-2.81,2.06-4.87,4.12-5.8,6.18h38.37c-2.25-4.49-6.93-8.61-13.48-9.73Z"/>
  <path class="st15" d="M-1276.17-2506.28c-3.56,0-5.24-1.69-5.24-4.87v-57.47c0-14.6-8.42-22.09-19.28-22.09-7.67,0-13.85,3.56-18.34,10.67v68.88c0,3.18-1.87,4.87-5.62,4.87h-22.27c-3.56,0-5.24-1.69-5.24-4.87v-108.01c0-2.81,1.69-4.12,5.24-4.12h22.27c3.56,0,5.24,1.31,5.24,3.56l-.75,7.49c8.05-8.05,17.22-11.98,27.7-11.98,24.33,0,43.99,19.65,43.99,45.3v67.76c0,3.18-1.87,4.87-5.43,4.87h-22.27Z"/>
  <path class="st15" d="M-1226.94-2649.29c0-10.29,8.24-18.53,18.53-18.53s18.72,8.42,18.72,18.53-8.24,18.72-18.72,18.72-18.53-8.05-18.53-18.72ZM-1220.2-2506.28c-3.56,0-5.24-1.69-5.24-4.87v-107.07c0-2.81,1.69-4.12,5.24-4.12h22.28c3.56,0,5.43,1.31,5.43,4.12v107.07c0,3.18-1.87,4.87-5.43,4.87h-22.28Z"/>
  <path class="st15" d="M-1163.04-2524.81c0-10.67,8.42-18.72,18.53-18.72s18.72,8.24,18.72,18.72-8.05,18.53-18.72,18.53-18.53-8.24-18.53-18.53Z"/>
  <path class="st15" d="M-1057.35-2506.28c-22.09,0-40.43-14.41-40.43-41.37v-47.36h-17.97c-3.18,0-4.87-1.5-4.87-4.68v-17.03c0-3.74,1.69-5.62,4.87-5.62h17.97v-29.2c0-3.56,1.87-5.62,5.8-6.36l21.34-4.31,1.5-.19c2.99,0,4.31,1.69,4.31,4.87v35.19h18.72c2.81,0,4.12,1.87,4.12,5.62v17.03c0,3.18-1.31,4.68-4.12,4.68h-18.72v43.99c0,5.8,3.18,11.04,7.11,12.17,2.06.75,6.74,1.12,14.04,1.12,2.99,0,4.49,1.5,4.49,4.31v23.21c0,2.62-1.5,3.93-4.49,3.93h-13.66Z"/>
  <path class="st15" d="M-984.73-2506.28c-2.06,0-3.56-1.69-4.87-5.24l-41.18-106.13c-.37-.75-.37-1.5-.37-2.06,0-1.69,1.5-2.62,4.49-2.62h26.96c2.25,0,3.74,1.12,4.68,3.56l24.71,65.14,24.52-65.33c.94-2.25,2.43-3.37,4.87-3.37h27.14c3,0,4.49.94,4.49,2.81,0,.56-.19,1.31-.56,2.06l-40.81,105.95c-1.31,3.56-3,5.24-5.05,5.24h-29.01Z"/>
  <g>
    <g>
      <path class="st15" d="M-1958.15-2513.31c-.19-3.78-.51-6.92-1.22-10.31-7.76-36.99-36.77-66.13-73.73-74.04-3.51-.75-6.83-1.14-10.44-1.26-4.07-.13-7.07-3.27-7.19-7.04-.12-3.9,2.96-7.49,7.19-7.52,4.69-.03,9.05.58,13.6,1.55,42.47,9.1,75.88,42.64,84.83,85.14.9,4.27,1.41,8.32,1.51,12.71.1,4.09-2.86,7.32-6.64,7.67-3.89.36-7.69-2.44-7.92-6.91Z"/>
      <path class="st15" d="M-1987.04-2512.34c-4.05-30.21-27.58-53.71-57.62-57.69-3.95-.52-6.45-4.37-6.03-8.04.43-3.71,3.88-6.91,7.96-6.39,36.5,4.68,65.36,33.57,70.07,70.06.51,3.93-2.44,7.31-6.01,7.91s-7.8-1.56-8.38-5.86Z"/>
      <path class="st15" d="M-2002.44-2515.13c.95,4.26-2.02,7.74-5.42,8.55-3.99.95-7.89-1.44-8.84-5.55-3.3-14.17-14.14-25.01-28.3-28.3-3.95-.92-6.28-4.6-5.63-8.38s4.28-6.79,8.4-5.91c19.79,4.25,35.34,19.61,39.79,39.59Z"/>
      <circle class="st15" cx="-2043.46" cy="-2513.66" r="7.29"/>
    </g>
    <path class="st16" d="M-1887.71-2580.51l-28.92,16.71-26.49,15.28c-2.64-7.66-6.12-14.93-10.34-21.7v-48.25c0-4.06,4.38-6.58,7.89-4.56l28.93,16.71,28.92,16.7c3.51,2.03,3.51,7.1,0,9.12Z"/>
    <path class="st14" d="M-1937.53-2654.92l-113.47,5.86,200.82,5.04c9.96.25,18.13,7.95,18.99,17.86l7.41,119.65,9.67-133.48c.42-11.47-9.09-20.82-20.55-20.23l-81.3,4.2c-.24-1.4-.94-2.69-1.96-3.76l45.62-58.3c1.75.39,3.64-.21,4.82-1.71,1.63-2.08,1.26-5.1-.82-6.73-2.08-1.63-5.1-1.26-6.73.82-1.17,1.5-1.3,3.48-.5,5.08l-45.79,58.52c-1.71-.73-3.7-1.1-5.82-.99-2.12.11-4.06.69-5.69,1.59l-51.56-53.5c.63-1.67.3-3.63-1.02-5-1.84-1.9-4.87-1.96-6.77-.12-1.91,1.83-1.96,4.87-.13,6.77,1.33,1.37,3.27,1.77,4.97,1.21l51.36,53.29c-.9,1.17-1.46,2.52-1.56,3.94"/>
    <polygon class="st14" points="-1951.64 -2508.1 -1823.77 -2506.52 -1951.67 -2515.45 -1951.64 -2508.1"/>
  </g>
  <path d="M-1687.96-3222.08c-3.74,0-5.62-1.69-5.62-5.24v-152.18c0-2.99,1.87-4.49,5.62-4.49h50.73c44.92,0,81.24,36.31,81.24,80.86s-36.5,81.05-81.24,81.05h-50.73ZM-1591-3303.87c0-24.71-20.78-46.05-46.24-46.05h-23.02v92.28h23.02c25.46,0,46.24-20.59,46.24-46.23Z"/>
  <path d="M-1540.84-3281.32c0-26.58,17.03-51.29,46.05-57.84,3.74-.94,7.49-1.31,11.23-1.31,12.92,0,26.58,5.05,34.82,12.54,11.04,10.3,20.03,26.02,20.03,53.16,0,2.99-1.12,4.49-3.37,4.49h-73.19c.56,1.12,4.31,7.11,8.99,10.29,3.93,2.81,9.17,4.12,14.23,4.12,8.61,0,17.03-4.31,20.4-9.55.75-1.31,1.69-2.06,2.99-2.06.75,0,1.5.37,2.43.94l21.71,13.48c1.31.75,2.06,1.87,2.06,3,0,.75-.19,1.5-.75,2.25-10.11,15.16-29.2,25.46-48.29,25.46-32.38,0-59.34-27.33-59.34-58.96ZM-1477.76-3307.71l-4.87-.37c-6.36.37-8.98.37-14.23,3.93-2.81,2.06-4.87,4.12-5.8,6.18h38.37c-2.25-4.49-6.93-8.61-13.48-9.73Z"/>
  <path d="M-1413.56-3281.32c0-26.58,17.03-51.29,46.05-57.84,3.74-.94,7.49-1.31,11.23-1.31,12.92,0,26.58,5.05,34.82,12.54,11.04,10.3,20.03,26.02,20.03,53.16,0,2.99-1.12,4.49-3.37,4.49h-73.19c.56,1.12,4.31,7.11,8.99,10.29,3.93,2.81,9.17,4.12,14.23,4.12,8.61,0,17.03-4.31,20.4-9.55.75-1.31,1.69-2.06,3-2.06.75,0,1.5.37,2.43.94l21.71,13.48c1.31.75,2.06,1.87,2.06,3,0,.75-.19,1.5-.75,2.25-10.11,15.16-29.2,25.46-48.29,25.46-32.38,0-59.34-27.33-59.34-58.96ZM-1350.48-3307.71l-4.87-.37c-6.36.37-8.99.37-14.23,3.93-2.81,2.06-4.87,4.12-5.8,6.18h38.37c-2.25-4.49-6.93-8.61-13.48-9.73Z"/>
  <path d="M-1209.53-3221.98c-3.56,0-5.24-1.69-5.24-4.87v-57.47c0-14.6-8.42-22.09-19.28-22.09-7.67,0-13.85,3.56-18.34,10.67v68.88c0,3.18-1.87,4.87-5.62,4.87h-22.27c-3.56,0-5.24-1.69-5.24-4.87v-108.01c0-2.81,1.69-4.12,5.24-4.12h22.27c3.56,0,5.24,1.31,5.24,3.56l-.75,7.49c8.05-8.05,17.22-11.98,27.7-11.98,24.33,0,43.99,19.65,43.99,45.3v67.76c0,3.18-1.87,4.87-5.43,4.87h-22.27Z"/>
  <path d="M-1160.3-3364.99c0-10.29,8.24-18.53,18.53-18.53s18.72,8.42,18.72,18.53-8.24,18.72-18.72,18.72-18.53-8.05-18.53-18.72ZM-1153.57-3221.98c-3.56,0-5.24-1.69-5.24-4.87v-107.07c0-2.81,1.69-4.12,5.24-4.12h22.28c3.56,0,5.43,1.31,5.43,4.12v107.07c0,3.18-1.87,4.87-5.43,4.87h-22.28Z"/>
  <path d="M-1096.4-3240.51c0-10.67,8.42-18.72,18.53-18.72s18.72,8.24,18.72,18.72-8.05,18.53-18.72,18.53-18.53-8.24-18.53-18.53Z"/>
  <path d="M-990.72-3221.98c-22.09,0-40.43-14.41-40.43-41.37v-47.36h-17.97c-3.18,0-4.87-1.5-4.87-4.68v-17.03c0-3.74,1.69-5.62,4.87-5.62h17.97v-29.2c0-3.56,1.87-5.62,5.8-6.36l21.34-4.31,1.5-.19c2.99,0,4.31,1.69,4.31,4.87v35.19h18.72c2.81,0,4.12,1.87,4.12,5.62v17.03c0,3.18-1.31,4.68-4.12,4.68h-18.72v43.99c0,5.8,3.18,11.04,7.11,12.17,2.06.75,6.74,1.12,14.04,1.12,2.99,0,4.49,1.5,4.49,4.31v23.21c0,2.62-1.5,3.93-4.49,3.93h-13.66Z"/>
  <path d="M-918.09-3221.98c-2.06,0-3.56-1.69-4.87-5.24l-41.18-106.13c-.37-.75-.37-1.5-.37-2.06,0-1.69,1.5-2.62,4.49-2.62h26.96c2.25,0,3.74,1.12,4.68,3.56l24.71,65.14,24.52-65.33c.94-2.25,2.43-3.37,4.87-3.37h27.14c3,0,4.49.94,4.49,2.81,0,.56-.19,1.31-.56,2.06l-40.81,105.95c-1.31,3.56-3,5.24-5.05,5.24h-29.01Z"/>
  <path class="st16" d="M-1833.91-3302.81l-34.92,20.15-21.4,12.36c-5.22-12.54-13.14-23.68-23.04-32.7v-45.63c0-4.89,5.3-7.95,9.53-5.5l34.91,20.15,34.92,20.16c4.23,2.45,4.23,8.56,0,11.01Z"/>
  <path class="st15" d="M-1790.84-3228.77c6.73,0,11.94-4.69,11.94-11.42v-135.87c0-6.71-5.23-11.41-11.77-11.41h-180.47c-6.6,0-11.73,4.74-11.75,11.33l-.07,22.87c-.02,6.4-5.41,11.16-11.36,11.12-6.29-.04-11.31-5.12-11.29-11.64l.07-22.99c.06-17.93,15.02-33.31,33.32-33.31h182.61c18.94,0,33.44,15.98,33.43,34.51v134.87c0,18.93-14.79,34.55-33.93,34.56l-67.93.04c-6.62,0-11.53-5.16-11.51-11.41.02-6.13,4.94-11.28,11.51-11.28h67.2Z"/>
  <path class="st15" d="M-1920.79-3219.46c.03,4.69-3.27,8.09-7.59,8.33-4.27.23-8.33-3.19-8.33-7.7.03-30.92-24.98-56.06-55.88-56.04-4.49,0-8-3.88-7.88-8.12.13-4.91,4.07-7.89,8.69-7.83,39.05.43,70.75,32.16,71,71.35Z"/>
  <path class="st15" d="M-1889.16-3230.15c.04,5.98-4.16,10.31-9.66,10.61-5.44.3-10.61-4.07-10.61-9.8,0-9.58-1.87-18.73-5.28-27.08-1.25-3.05-2.7-6-4.34-8.82-12.32-21.22-35.26-35.49-61.55-35.47-5.72,0-10.19-4.94-10.04-10.34.16-6.26,5.17-10.05,11.05-9.98,23.28.26,44.51,9.25,60.54,23.86,9.83,8.96,17.7,20.02,22.88,32.47,4.45,10.65,6.93,22.31,7.01,34.55Z"/>
  <path class="st15" d="M-1968.59-3219.04c-.11-13.29-10.65-23.84-23.83-23.95-4.56-.04-8.04-3.6-8.05-7.93,0-4.38,3.46-8.02,8.02-8,21.92.06,39.61,17.74,39.78,39.64.03,4.52-3.4,8.05-7.78,8.15-4.23.1-8.1-3.17-8.14-7.91Z"/>
  <circle class="st15" cx="-1994.26" cy="-3217.44" r="11.32"/>
  <path class="st15" d="M-1835.79-3597.23c-20.79,0-38.11-.28-55.44-.72-10.8-.27-21.59-.63-32.37-1.14-9.93-.47-19.85-1.02-29.75-1.95-7.34-.69-14.7-1.27-21.9-2.91-17.9-4.07-29.48-15.04-34.55-32.65-2.18-7.58-3.07-15.43-3.92-23.27-2.58-24.05-3.42-48.18-3.01-72.35.18-10.67.68-21.33,1.43-31.97.62-8.85,1.37-17.69,2.67-26.46,1.04-7.02,1.89-14.13,4.82-20.68,6.72-15,18.04-24.31,34.37-27.25,9.24-1.66,18.59-2.41,27.94-3.09,14.73-1.07,29.48-1.64,44.24-2.09,27.4-.84,54.8-1.2,82.21-.84,11.44.15,22.88.37,34.31.69,11.56.32,23.12.78,34.67,1.42,7.84.44,15.67.9,23.49,1.65,8.73.84,17.53,1.45,25.96,4.05,15.76,4.86,25.82,15.41,30.18,31.31,2.14,7.77,3.23,15.74,4.15,23.74,1.63,14.25,2.39,28.56,2.84,42.89.4,12.85.35,25.7-.1,38.54-.34,9.64-.86,19.27-1.69,28.88-.86,9.94-1.98,19.83-3.88,29.63-1.69,8.74-4.67,16.86-10.66,23.66-6.74,7.64-15.09,12.51-25.08,14.46-8.71,1.7-17.55,2.43-26.38,3.14-11.57.93-23.16,1.48-34.76,1.93-10.11.4-20.22.6-30.34.85-14.3.35-28.6.56-39.45.53Z"/>
  <path class="st15" d="M-1927.97-4396.4v-15.71c2.16-22.49,10.84-43.25,26.14-59.89,2.08-2.53,4.22-4.5,6.67-6.72,20.79-18.82,47.05-27.82,75.15-25.93,25.5,1.72,49.98,13.67,67.09,32.62,18.73,20.75,27.88,47.17,25.91,75.15-1.56,22.18-10.4,43-25.21,59.51-1.48,1.66-2.63,3.42-4.45,4.54-2.94,1.8-6.52.87-8.19-1.74-1.85-2.89-.9-5.97,1.48-8.42,32.19-33.1,32.87-86.49,1.7-120.67-1.12-1.23-2.12-2.39-3.26-3.44l-4.5-4.17c-13.55-12.54-31.03-19.37-49.38-21.26-1.62-.17-3.1.06-4.65-.19-2.71-.44-5.17-.43-7.89,0-1.55.25-3.02.03-4.66.2-22.9,2.36-43.32,12.95-58.4,30.29-29.95,34.42-28.67,86.7,2.98,119.24,2.38,2.45,3.33,5.53,1.49,8.42-1.68,2.62-5.24,3.53-8.19,1.75-1.84-1.11-2.94-2.92-4.42-4.54-14.99-16.49-23.29-37.19-25.42-59.04Z"/>
  <path class="st15" d="M-1821.22-4467.33c-17.93-1.59-34.42,3.64-47.95,15.35-12.03,10.41-19.89,25.67-21.31,41.54-1.55,17.25,3.09,32.54,13.7,46.07,2.15,2.74,1.17,6.61-1.4,8.4-2.83,1.97-6.21,1.28-8.51-1.66-19.16-24.52-21.62-58.19-5.53-85.12,3.94-6.59,8.69-12.41,14.18-17.37,28.87-26.08,72.43-26.11,101.28,0,14.21,12.86,23.24,30.99,24.61,50.56,1.32,18.76-4.51,37.43-16.14,52.13-1.43,1.8-3.45,2.92-5.57,2.6-2.21-.33-4.05-1.89-4.74-3.45-1.02-2.32-.63-4.66.87-6.55,10.46-13.24,14.91-28.77,13.39-45.6-2.71-29.95-27.03-54.24-56.88-56.89Z"/>
  <path class="st15" d="M-1792.98-4387.43c7.57-16.3,3.34-35.44-10.44-46.52-13.94-11.21-33.72-11.29-47.76-.18-13.93,11.03-18.28,30.35-10.68,46.57,1.46,3.12-.69,6.69-3.34,7.67-3.21,1.19-6.51-.34-7.88-3.46-3.62-8.26-5.19-16.63-4.32-25.61,2.66-27.64,27.4-47.92,54.69-45.29,23.98,2.32,42.92,21.32,45.3,45.3.9,9.02-.76,17.27-4.33,25.59-1.33,3.11-4.35,4.59-7.59,3.57-2.58-.81-5.21-4.28-3.64-7.65Z"/>
  <g>
    <path class="st15" d="M-1778.26-4293.52h-98.21c-8.43-1.95-14.84-7.71-14.1-16.88.34-4.27,2.21-7.79,4.38-11.54l44.44-76.8c2.98-5.15,8.49-8.82,14.38-8.82s11.4,3.67,14.38,8.82l44.29,76.49c2.15,3.72,4.04,7.2,4.5,11.44,1.02,9.54-5.72,15.4-14.06,17.3Z"/>
    <path class="st15" d="M-1780.58-4307.21h-93.43c-.98.01-2.03-.67-2.43-1.11-.45-.5-.52-1.96.02-2.9l46.7-80.89c.5-.87,1.58-1.4,2.17-1.48.7-.1,1.97.51,2.53,1.48l46.69,80.86c.49.85.41,2.09.19,2.64s-1.15,1.39-2.45,1.39Z"/>
  </g>
  <g>
    <path class="st11" d="M-1921.9-3718.69v-12.79c1.76-18.31,8.83-35.21,21.28-48.76,1.69-2.06,3.44-3.67,5.43-5.47,16.93-15.33,38.3-22.65,61.18-21.11,20.76,1.4,40.69,11.13,54.62,26.56,15.25,16.89,22.7,38.4,21.09,61.18-1.27,18.06-8.47,35.01-20.52,48.45-1.21,1.35-2.14,2.79-3.62,3.7-2.39,1.47-5.31.71-6.67-1.42-1.51-2.35-.73-4.86,1.21-6.85,26.2-26.94,26.76-70.41,1.39-98.24-.91-1-1.73-1.95-2.65-2.8l-3.66-3.39c-11.03-10.21-25.26-15.77-40.2-17.31-1.32-.14-2.53.05-3.78-.16-2.21-.35-4.21-.35-6.42,0-1.26.2-2.46.03-3.8.16-18.64,1.92-35.27,10.54-47.55,24.66-24.38,28.02-23.34,70.58,2.43,97.07,1.94,1.99,2.71,4.5,1.21,6.85-1.37,2.13-4.27,2.87-6.67,1.42-1.5-.9-2.4-2.38-3.6-3.7-12.2-13.43-18.96-30.28-20.69-48.06Z"/>
    <path class="st11" d="M-1834.99-3776.43c-14.59-1.3-28.02,2.96-39.04,12.49-9.79,8.47-16.19,20.9-17.35,33.82-1.26,14.04,2.51,26.49,11.15,37.51,1.75,2.23.95,5.39-1.14,6.84-2.3,1.6-5.05,1.04-6.93-1.36-15.6-19.96-17.6-47.37-4.5-69.3,3.2-5.36,7.07-10.1,11.54-14.14,23.5-21.23,58.96-21.26,82.46,0,11.57,10.47,18.92,25.23,20.04,41.16s-3.67,30.47-13.14,42.44c-1.16,1.47-2.81,2.38-4.53,2.12-1.8-.27-3.3-1.54-3.86-2.81-.83-1.89-.51-3.8.7-5.33,8.52-10.78,12.14-23.42,10.9-37.13-2.21-24.38-22.01-44.16-46.31-46.32Z"/>
    <path class="st11" d="M-1812-3711.39c6.16-13.27,2.72-28.85-8.5-37.88-11.35-9.13-27.45-9.19-38.88-.14s-14.88,24.71-8.69,37.92c1.19,2.54-.56,5.45-2.72,6.25-2.61.97-5.3-.28-6.41-2.82-2.94-6.73-4.22-13.54-3.52-20.85,2.17-22.5,22.31-39.02,44.52-36.87,19.52,1.89,34.94,17.36,36.88,36.88.73,7.34-.62,14.06-3.53,20.83-1.09,2.53-3.54,3.74-6.18,2.91-2.1-.66-4.24-3.48-2.96-6.22Z"/>
    <g>
      <path class="st11" d="M-1800.02-3634.94h-79.95c-6.87-1.58-12.08-6.27-11.48-13.74.28-3.47,1.8-6.34,3.57-9.4l36.18-62.52c2.43-4.2,6.91-7.18,11.71-7.18s9.28,2.99,11.71,7.18l36.05,62.27c1.75,3.02,3.29,5.86,3.66,9.31.83,7.77-4.66,12.54-11.44,14.08Z"/>
      <path class="st11" d="M-1801.91-3646.08h-76.06c-.8.01-1.65-.55-1.97-.9-.37-.41-.42-1.59.02-2.36l38.02-65.85c.41-.71,1.28-1.14,1.77-1.21.57-.08,1.61.42,2.06,1.21l38.01,65.83c.4.69.33,1.7.16,2.15s-.94,1.13-1.99,1.13Z"/>
    </g>
  </g>
  <path class="st10" d="M-1628.65-3619.79c-3.66,0-5.49-1.65-5.49-5.13v-148.88c0-2.93,1.83-4.39,5.49-4.39h49.62c43.95,0,79.47,35.53,79.47,79.11s-35.71,79.29-79.47,79.29h-49.62ZM-1533.79-3699.82c0-24.17-20.33-45.05-45.23-45.05h-22.52v90.28h22.52c24.91,0,45.23-20.14,45.23-45.23Z"/>
  <path class="st10" d="M-1484.72-3677.75c0-26,16.66-50.18,45.05-56.58,3.66-.92,7.33-1.28,10.99-1.28,12.64,0,26,4.94,34.06,12.27,10.8,10.07,19.59,25.45,19.59,52.01,0,2.93-1.1,4.39-3.3,4.39h-71.6c.55,1.1,4.21,6.96,8.79,10.07,3.85,2.75,8.97,4.03,13.92,4.03,8.42,0,16.66-4.21,19.96-9.34.73-1.28,1.65-2.01,2.93-2.01.73,0,1.47.37,2.38.92l21.24,13.18c1.28.73,2.01,1.83,2.01,2.93,0,.73-.18,1.46-.73,2.2-9.89,14.83-28.57,24.9-47.25,24.9-31.68,0-58.05-26.74-58.05-57.68ZM-1423.01-3703.57l-4.76-.37c-6.23.37-8.79.37-13.92,3.85-2.75,2.01-4.76,4.03-5.68,6.04h37.54c-2.2-4.4-6.78-8.42-13.18-9.52Z"/>
  <path class="st10" d="M-1360.2-3677.75c0-26,16.66-50.18,45.05-56.58,3.66-.92,7.33-1.28,10.99-1.28,12.63,0,26,4.94,34.06,12.27,10.8,10.07,19.59,25.45,19.59,52.01,0,2.93-1.1,4.39-3.3,4.39h-71.6c.55,1.1,4.21,6.96,8.79,10.07,3.85,2.75,8.97,4.03,13.92,4.03,8.42,0,16.66-4.21,19.96-9.34.73-1.28,1.65-2.01,2.93-2.01.73,0,1.46.37,2.38.92l21.24,13.18c1.28.73,2.01,1.83,2.01,2.93,0,.73-.18,1.46-.73,2.2-9.89,14.83-28.57,24.9-47.25,24.9-31.68,0-58.05-26.74-58.05-57.68ZM-1298.49-3703.57l-4.76-.37c-6.23.37-8.79.37-13.92,3.85-2.75,2.01-4.76,4.03-5.68,6.04h37.54c-2.2-4.4-6.78-8.42-13.18-9.52Z"/>
  <path class="st10" d="M-1160.6-3619.7c-3.48,0-5.13-1.65-5.13-4.76v-56.22c0-14.28-8.24-21.61-18.86-21.61-7.51,0-13.55,3.48-17.95,10.44v67.39c0,3.11-1.83,4.76-5.49,4.76h-21.79c-3.48,0-5.13-1.65-5.13-4.76v-105.66c0-2.75,1.65-4.03,5.13-4.03h21.79c3.48,0,5.13,1.28,5.13,3.48l-.73,7.32c7.88-7.87,16.85-11.72,27.1-11.72,23.81,0,43.03,19.23,43.03,44.32v66.29c0,3.11-1.83,4.76-5.31,4.76h-21.79Z"/>
  <path class="st10" d="M-1112.45-3759.61c0-10.07,8.06-18.13,18.13-18.13s18.31,8.24,18.31,18.13-8.06,18.31-18.31,18.31-18.13-7.88-18.13-18.31ZM-1105.86-3619.7c-3.48,0-5.13-1.65-5.13-4.76v-104.75c0-2.75,1.65-4.03,5.13-4.03h21.79c3.48,0,5.31,1.28,5.31,4.03v104.75c0,3.11-1.83,4.76-5.31,4.76h-21.79Z"/>
  <path class="st10" d="M-1049.93-3637.83c0-10.44,8.24-18.31,18.13-18.31s18.31,8.06,18.31,18.31-7.87,18.13-18.31,18.13-18.13-8.06-18.13-18.13Z"/>
  <path class="st10" d="M-946.54-3619.7c-21.61,0-39.55-14.1-39.55-40.47v-46.33h-17.58c-3.11,0-4.76-1.47-4.76-4.58v-16.66c0-3.66,1.65-5.49,4.76-5.49h17.58v-28.57c0-3.48,1.83-5.49,5.68-6.23l20.88-4.21,1.46-.18c2.93,0,4.21,1.65,4.21,4.76v34.43h18.31c2.75,0,4.03,1.83,4.03,5.49v16.66c0,3.11-1.28,4.58-4.03,4.58h-18.31v43.03c0,5.68,3.11,10.8,6.96,11.9,2.01.73,6.59,1.1,13.73,1.1,2.93,0,4.4,1.47,4.4,4.21v22.71c0,2.56-1.47,3.85-4.4,3.85h-13.37Z"/>
  <path class="st10" d="M-875.49-3619.7c-2.01,0-3.48-1.65-4.76-5.13l-40.29-103.83c-.37-.73-.37-1.46-.37-2.01,0-1.65,1.46-2.56,4.39-2.56h26.37c2.2,0,3.66,1.1,4.58,3.48l24.17,63.73,23.99-63.91c.92-2.2,2.38-3.3,4.76-3.3h26.55c2.93,0,4.4.92,4.4,2.75,0,.55-.18,1.28-.55,2.01l-39.92,103.65c-1.28,3.48-2.93,5.13-4.94,5.13h-28.38Z"/>
  <path class="st15" d="M-1835.79-3925.46c-20.79,0-38.11-.28-55.44-.72-10.8-.27-21.59-.63-32.37-1.14-9.93-.47-19.85-1.02-29.75-1.95-7.34-.69-14.7-1.27-21.9-2.91-17.9-4.07-29.48-15.04-34.55-32.65-2.18-7.58-3.07-15.43-3.92-23.27-2.58-24.05-3.42-48.18-3.01-72.35.18-10.67.68-21.33,1.43-31.97.62-8.85,1.37-17.69,2.67-26.46,1.04-7.02,1.89-14.13,4.82-20.68,6.72-15,18.04-24.31,34.37-27.25,9.24-1.66,18.59-2.41,27.94-3.09,14.73-1.07,29.48-1.64,44.24-2.09,27.4-.84,54.8-1.2,82.21-.84,11.44.15,22.88.37,34.31.69,11.56.32,23.12.78,34.67,1.42,7.84.44,15.67.9,23.49,1.65,8.73.84,17.53,1.45,25.96,4.05,15.76,4.86,25.82,15.41,30.18,31.31,2.14,7.77,3.23,15.74,4.15,23.74,1.63,14.25,2.39,28.56,2.84,42.89.4,12.85.35,25.7-.1,38.54-.34,9.64-.86,19.27-1.69,28.88-.86,9.94-1.98,19.83-3.88,29.63-1.69,8.74-4.67,16.86-10.66,23.66-6.74,7.64-15.09,12.51-25.08,14.46-8.71,1.7-17.55,2.43-26.38,3.14-11.57.93-23.16,1.48-34.76,1.93-10.11.4-20.22.6-30.34.85-14.3.35-28.6.56-39.45.53Z"/>
  <g>
    <path class="st11" d="M-1921.9-4046.93v-12.79c1.76-18.31,8.83-35.21,21.28-48.76,1.69-2.06,3.44-3.67,5.43-5.47,16.93-15.33,38.3-22.65,61.18-21.11,20.76,1.4,40.69,11.13,54.62,26.56,15.25,16.89,22.7,38.4,21.09,61.18-1.27,18.06-8.47,35.01-20.52,48.45-1.21,1.35-2.14,2.79-3.62,3.7-2.39,1.47-5.31.71-6.67-1.42-1.51-2.35-.73-4.86,1.21-6.85,26.2-26.94,26.76-70.41,1.39-98.24-.91-1-1.73-1.95-2.65-2.8l-3.66-3.39c-11.03-10.21-25.26-15.77-40.2-17.31-1.32-.14-2.53.05-3.78-.16-2.21-.35-4.21-.35-6.42,0-1.26.2-2.46.03-3.8.16-18.64,1.92-35.27,10.54-47.55,24.66-24.38,28.02-23.34,70.58,2.43,97.07,1.94,1.99,2.71,4.5,1.21,6.85-1.37,2.13-4.27,2.87-6.67,1.42-1.5-.9-2.4-2.38-3.6-3.7-12.2-13.43-18.96-30.28-20.69-48.06Z"/>
    <path class="st11" d="M-1834.99-4104.67c-14.59-1.3-28.02,2.96-39.04,12.49-9.79,8.47-16.19,20.9-17.35,33.82-1.26,14.04,2.51,26.49,11.15,37.51,1.75,2.23.95,5.39-1.14,6.84-2.3,1.6-5.05,1.04-6.93-1.36-15.6-19.96-17.6-47.37-4.5-69.3,3.2-5.36,7.07-10.1,11.54-14.14,23.5-21.23,58.96-21.26,82.46,0,11.57,10.47,18.92,25.23,20.04,41.16,1.07,15.27-3.67,30.47-13.14,42.44-1.16,1.47-2.81,2.38-4.53,2.12s-3.3-1.54-3.86-2.81c-.83-1.89-.51-3.8.7-5.33,8.52-10.78,12.14-23.42,10.9-37.13-2.21-24.38-22.01-44.16-46.31-46.32Z"/>
    <path class="st11" d="M-1812-4039.63c6.16-13.27,2.72-28.85-8.5-37.88-11.35-9.13-27.45-9.19-38.88-.14s-14.88,24.71-8.69,37.92c1.19,2.54-.56,5.45-2.72,6.25-2.61.97-5.3-.28-6.41-2.82-2.94-6.73-4.22-13.54-3.52-20.85,2.17-22.5,22.31-39.02,44.52-36.87,19.52,1.89,34.94,17.36,36.88,36.88.73,7.34-.62,14.06-3.53,20.83-1.09,2.53-3.54,3.74-6.18,2.91-2.1-.66-4.24-3.48-2.96-6.22Z"/>
    <g>
      <path class="st11" d="M-1800.02-3963.17h-79.95c-6.87-1.58-12.08-6.27-11.48-13.74.28-3.47,1.8-6.34,3.57-9.4l36.18-62.52c2.43-4.2,6.91-7.18,11.71-7.18s9.28,2.99,11.71,7.18l36.05,62.27c1.75,3.02,3.29,5.86,3.66,9.31.83,7.77-4.66,12.54-11.44,14.08Z"/>
      <path class="st5" d="M-1801.91-3974.31h-76.06c-.8.01-1.65-.55-1.97-.9-.37-.41-.42-1.59.02-2.36l38.02-65.85c.41-.71,1.28-1.14,1.77-1.21.57-.08,1.61.42,2.06,1.21l38.01,65.83c.4.69.33,1.7.16,2.15s-.94,1.13-1.99,1.13Z"/>
    </g>
  </g>
  <path class="st10" d="M-1628.65-3948.03c-3.66,0-5.49-1.65-5.49-5.13v-148.88c0-2.93,1.83-4.39,5.49-4.39h49.62c43.95,0,79.47,35.53,79.47,79.11s-35.71,79.29-79.47,79.29h-49.62ZM-1533.79-4028.05c0-24.17-20.33-45.05-45.23-45.05h-22.52v90.28h22.52c24.91,0,45.23-20.14,45.23-45.23Z"/>
  <path class="st10" d="M-1484.72-4005.99c0-26,16.66-50.18,45.05-56.58,3.66-.92,7.33-1.28,10.99-1.28,12.64,0,26,4.94,34.06,12.27,10.8,10.07,19.59,25.45,19.59,52.01,0,2.93-1.1,4.39-3.3,4.39h-71.6c.55,1.1,4.21,6.96,8.79,10.07,3.85,2.75,8.97,4.03,13.92,4.03,8.42,0,16.66-4.21,19.96-9.34.73-1.28,1.65-2.01,2.93-2.01.73,0,1.47.37,2.38.92l21.24,13.18c1.28.73,2.01,1.83,2.01,2.93,0,.73-.18,1.46-.73,2.2-9.89,14.83-28.57,24.9-47.25,24.9-31.68,0-58.05-26.74-58.05-57.68ZM-1423.01-4031.81l-4.76-.37c-6.23.37-8.79.37-13.92,3.85-2.75,2.01-4.76,4.03-5.68,6.04h37.54c-2.2-4.4-6.78-8.42-13.18-9.52Z"/>
  <path class="st10" d="M-1360.2-4005.99c0-26,16.66-50.18,45.05-56.58,3.66-.92,7.33-1.28,10.99-1.28,12.63,0,26,4.94,34.06,12.27,10.8,10.07,19.59,25.45,19.59,52.01,0,2.93-1.1,4.39-3.3,4.39h-71.6c.55,1.1,4.21,6.96,8.79,10.07,3.85,2.75,8.97,4.03,13.92,4.03,8.42,0,16.66-4.21,19.96-9.34.73-1.28,1.65-2.01,2.93-2.01.73,0,1.46.37,2.38.92l21.24,13.18c1.28.73,2.01,1.83,2.01,2.93,0,.73-.18,1.46-.73,2.2-9.89,14.83-28.57,24.9-47.25,24.9-31.68,0-58.05-26.74-58.05-57.68ZM-1298.49-4031.81l-4.76-.37c-6.23.37-8.79.37-13.92,3.85-2.75,2.01-4.76,4.03-5.68,6.04h37.54c-2.2-4.4-6.78-8.42-13.18-9.52Z"/>
  <path class="st10" d="M-1160.6-3947.94c-3.48,0-5.13-1.65-5.13-4.76v-56.22c0-14.28-8.24-21.61-18.86-21.61-7.51,0-13.55,3.48-17.95,10.44v67.39c0,3.11-1.83,4.76-5.49,4.76h-21.79c-3.48,0-5.13-1.65-5.13-4.76v-105.66c0-2.75,1.65-4.03,5.13-4.03h21.79c3.48,0,5.13,1.28,5.13,3.48l-.73,7.32c7.88-7.87,16.85-11.72,27.1-11.72,23.81,0,43.03,19.23,43.03,44.32v66.29c0,3.11-1.83,4.76-5.31,4.76h-21.79Z"/>
  <path class="st10" d="M-1112.45-4087.84c0-10.07,8.06-18.13,18.13-18.13s18.31,8.24,18.31,18.13-8.06,18.31-18.31,18.31-18.13-7.88-18.13-18.31ZM-1105.86-3947.94c-3.48,0-5.13-1.65-5.13-4.76v-104.75c0-2.75,1.65-4.03,5.13-4.03h21.79c3.48,0,5.31,1.28,5.31,4.03v104.75c0,3.11-1.83,4.76-5.31,4.76h-21.79Z"/>
  <path class="st10" d="M-1049.93-3966.07c0-10.44,8.24-18.31,18.13-18.31s18.31,8.06,18.31,18.31-7.87,18.13-18.31,18.13-18.13-8.06-18.13-18.13Z"/>
  <path class="st10" d="M-946.54-3947.94c-21.61,0-39.55-14.1-39.55-40.47v-46.33h-17.58c-3.11,0-4.76-1.47-4.76-4.58v-16.66c0-3.66,1.65-5.49,4.76-5.49h17.58v-28.57c0-3.48,1.83-5.49,5.68-6.23l20.88-4.21,1.46-.18c2.93,0,4.21,1.65,4.21,4.76v34.43h18.31c2.75,0,4.03,1.83,4.03,5.49v16.66c0,3.11-1.28,4.58-4.03,4.58h-18.31v43.03c0,5.68,3.11,10.8,6.96,11.9,2.01.73,6.59,1.1,13.73,1.1,2.93,0,4.4,1.47,4.4,4.21v22.71c0,2.56-1.47,3.85-4.4,3.85h-13.37Z"/>
  <path class="st10" d="M-875.49-3947.94c-2.01,0-3.48-1.65-4.76-5.13l-40.29-103.83c-.37-.73-.37-1.46-.37-2.01,0-1.65,1.46-2.56,4.39-2.56h26.37c2.2,0,3.66,1.1,4.58,3.48l24.17,63.73,23.99-63.91c.92-2.2,2.38-3.3,4.76-3.3h26.55c2.93,0,4.4.92,4.4,2.75,0,.55-.18,1.28-.55,2.01l-39.92,103.65c-1.28,3.48-2.93,5.13-4.94,5.13h-28.38Z"/>
  <g>
    <path class="st10" d="M-1636.99-4650.27c-3.75,0-5.62-1.69-5.62-5.25v-152.4c0-3,1.87-4.5,5.62-4.5h50.8c44.99,0,81.36,36.37,81.36,80.98s-36.55,81.17-81.36,81.17h-50.8ZM-1539.89-4732.19c0-24.74-20.81-46.11-46.3-46.11h-23.06v92.42h23.06c25.49,0,46.3-20.62,46.3-46.3Z"/>
    <path class="st10" d="M-1489.65-4709.6c0-26.62,17.06-51.36,46.11-57.92,3.75-.94,7.5-1.31,11.25-1.31,12.93,0,26.62,5.06,34.87,12.56,11.06,10.31,20.06,26.06,20.06,53.24,0,3-1.12,4.5-3.37,4.5h-73.3c.56,1.12,4.31,7.12,9,10.31,3.94,2.81,9.19,4.12,14.25,4.12,8.62,0,17.06-4.31,20.43-9.56.75-1.31,1.69-2.06,3-2.06.75,0,1.5.37,2.44.94l21.75,13.5c1.31.75,2.06,1.88,2.06,3,0,.75-.19,1.5-.75,2.25-10.12,15.18-29.24,25.49-48.36,25.49-32.43,0-59.42-27.37-59.42-59.05ZM-1426.48-4736.03l-4.87-.37c-6.37.37-9,.37-14.25,3.94-2.81,2.06-4.87,4.12-5.81,6.19h38.43c-2.25-4.5-6.94-8.62-13.5-9.75Z"/>
    <path class="st10" d="M-1362.19-4709.6c0-26.62,17.06-51.36,46.11-57.92,3.75-.94,7.5-1.31,11.25-1.31,12.93,0,26.62,5.06,34.87,12.56,11.06,10.31,20.06,26.06,20.06,53.24,0,3-1.12,4.5-3.37,4.5h-73.3c.56,1.12,4.31,7.12,9,10.31,3.94,2.81,9.19,4.12,14.25,4.12,8.62,0,17.06-4.31,20.43-9.56.75-1.31,1.69-2.06,3-2.06.75,0,1.5.37,2.44.94l21.75,13.5c1.31.75,2.06,1.88,2.06,3,0,.75-.19,1.5-.75,2.25-10.12,15.18-29.24,25.49-48.36,25.49-32.43,0-59.42-27.37-59.42-59.05ZM-1299.01-4736.03l-4.87-.37c-6.37.37-9,.37-14.25,3.94-2.81,2.06-4.87,4.12-5.81,6.19h38.43c-2.25-4.5-6.94-8.62-13.5-9.75Z"/>
    <path class="st10" d="M-1157.86-4650.18c-3.56,0-5.25-1.69-5.25-4.87v-57.55c0-14.62-8.44-22.12-19.31-22.12-7.69,0-13.87,3.56-18.37,10.69v68.98c0,3.19-1.87,4.87-5.62,4.87h-22.31c-3.56,0-5.25-1.69-5.25-4.87v-108.16c0-2.81,1.69-4.12,5.25-4.12h22.31c3.56,0,5.25,1.31,5.25,3.56l-.75,7.5c8.06-8.06,17.25-12,27.74-12,24.37,0,44.05,19.68,44.05,45.36v67.86c0,3.19-1.87,4.87-5.44,4.87h-22.31Z"/>
    <path class="st10" d="M-1108.57-4793.39c0-10.31,8.25-18.56,18.56-18.56s18.75,8.44,18.75,18.56-8.25,18.75-18.75,18.75-18.56-8.06-18.56-18.75ZM-1101.82-4650.18c-3.56,0-5.25-1.69-5.25-4.87v-107.22c0-2.81,1.69-4.12,5.25-4.12h22.31c3.56,0,5.44,1.31,5.44,4.12v107.22c0,3.19-1.88,4.87-5.44,4.87h-22.31Z"/>
    <path class="st10" d="M-1044.57-4668.73c0-10.68,8.44-18.75,18.56-18.75s18.75,8.25,18.75,18.75-8.06,18.56-18.75,18.56-18.56-8.25-18.56-18.56Z"/>
    <path class="st10" d="M-938.73-4650.18c-22.12,0-40.49-14.43-40.49-41.43v-47.43h-18c-3.19,0-4.87-1.5-4.87-4.69v-17.06c0-3.75,1.69-5.62,4.87-5.62h18v-29.24c0-3.56,1.87-5.62,5.81-6.37l21.37-4.31,1.5-.19c3,0,4.31,1.69,4.31,4.87v35.24h18.75c2.81,0,4.12,1.87,4.12,5.62v17.06c0,3.19-1.31,4.69-4.12,4.69h-18.75v44.05c0,5.81,3.19,11.06,7.12,12.18,2.06.75,6.75,1.12,14.06,1.12,3,0,4.5,1.5,4.5,4.31v23.24c0,2.62-1.5,3.94-4.5,3.94h-13.68Z"/>
    <path class="st10" d="M-866-4650.18c-2.06,0-3.56-1.69-4.87-5.25l-41.24-106.29c-.37-.75-.37-1.5-.37-2.06,0-1.69,1.5-2.63,4.5-2.63h26.99c2.25,0,3.75,1.12,4.69,3.56l24.74,65.24,24.56-65.42c.94-2.25,2.44-3.37,4.87-3.37h27.18c3,0,4.5.94,4.5,2.81,0,.56-.19,1.31-.56,2.06l-40.86,106.1c-1.31,3.56-3,5.25-5.06,5.25h-29.06Z"/>
  </g>
  <g>
    <path class="st15" d="M-1829.17-4624.79c-19.99,0-36.65-.27-53.32-.69-10.38-.26-20.76-.61-31.13-1.1-9.55-.45-19.09-.98-28.61-1.87-7.06-.66-14.14-1.22-21.06-2.79-17.21-3.91-28.35-14.46-33.23-31.4-2.1-7.29-2.96-14.84-3.77-22.37-2.49-23.13-3.28-46.33-2.89-69.58.17-10.26.65-20.51,1.37-30.75.6-8.51,1.31-17.01,2.57-25.44,1-6.75,1.81-13.59,4.63-19.89,6.46-14.43,17.35-23.38,33.05-26.21,8.89-1.6,17.88-2.32,26.87-2.97,14.17-1.03,28.35-1.58,42.55-2.01,26.35-.81,52.7-1.16,79.06-.8,11,.15,22,.36,33,.67,11.12.31,22.23.75,33.34,1.37,7.54.42,15.07.87,22.59,1.59,8.39.81,16.86,1.39,24.96,3.89,15.16,4.67,24.83,14.82,29.03,30.11,2.05,7.48,3.1,15.14,3.99,22.83,1.57,13.71,2.3,27.47,2.73,41.25.39,12.36.34,24.71-.1,37.07-.33,9.27-.83,18.53-1.63,27.77-.82,9.56-1.91,19.07-3.73,28.49-1.63,8.41-4.49,16.22-10.25,22.75-6.48,7.34-14.51,12.03-24.12,13.9-8.38,1.63-16.87,2.33-25.37,3.02-11.13.89-22.28,1.42-33.43,1.86-9.72.38-19.45.58-29.17.82-13.75.33-27.5.54-37.94.51Z"/>
    <g>
      <path class="st11" d="M-1767.55-4673.71c-3.27,3.94-9.02,4.08-12.66,1.07-3.97-3.28-4.33-9.01-1.14-12.9,27.62-33.58,27.5-82.05-.17-115.55-3.21-3.89-2.4-9.77,1.5-12.82,4.03-3.14,9.56-2.33,12.72,1.51,33.08,40.18,33.1,98.53-.26,138.69Z"/>
      <path class="st11" d="M-1885.26-4685.77c3.32,4.05,3.09,9.52-.78,12.97-3.55,3.18-9.54,3.03-12.72-.78-33.44-40.06-33.55-98.52-.41-138.78,3.17-3.85,8.68-4.7,12.71-1.58,3.97,3.07,4.75,8.99,1.52,12.89-27.73,33.45-27.99,81.6-.32,115.28Z"/>
      <path class="st11" d="M-1787.25-4711.41c-2.6,4.55-8.08,5.66-12.37,3.35-4.2-2.27-6.05-7.81-3.47-12.29,8.31-14.42,8.37-32.03-.24-46.34-2.87-4.78-.81-10.76,3.9-12.93,5.54-2.55,10.06.5,12.63,5.38,10.39,19.74,10.86,43.1-.45,62.83Z"/>
      <path class="st11" d="M-1863.5-4720.51c2.68,4.66.81,10.13-3.38,12.44-4.49,2.47-9.82.91-12.38-3.62-11.11-19.63-11.18-43.52-.1-63.18,2.52-4.46,7.93-5.96,12.28-3.59,4.22,2.3,6.07,7.82,3.54,12.27-8.08,14.2-8.2,31.32.05,45.67Z"/>
      <circle class="st11" cx="-1833.26" cy="-4743.2" r="18.15"/>
    </g>
  </g>
  <g>
    <path class="st10" d="M366.27-138.79c-3.75,0-5.62-1.69-5.62-5.25v-152.4c0-3,1.87-4.5,5.62-4.5h50.8c44.99,0,81.36,36.37,81.36,80.98s-36.55,81.17-81.36,81.17h-50.8ZM463.38-220.7c0-24.74-20.81-46.11-46.3-46.11h-23.06v92.42h23.06c25.49,0,46.3-20.62,46.3-46.3Z"/>
    <path class="st10" d="M513.61-198.12c0-26.62,17.06-51.36,46.11-57.92,3.75-.94,7.5-1.31,11.25-1.31,12.93,0,26.62,5.06,34.87,12.56,11.06,10.31,20.06,26.06,20.06,53.24,0,3-1.12,4.5-3.37,4.5h-73.3c.56,1.12,4.31,7.12,9,10.31,3.94,2.81,9.19,4.12,14.25,4.12,8.62,0,17.06-4.31,20.43-9.56.75-1.31,1.69-2.06,3-2.06.75,0,1.5.37,2.44.94l21.75,13.5c1.31.75,2.06,1.88,2.06,3,0,.75-.19,1.5-.75,2.25-10.12,15.18-29.24,25.49-48.36,25.49-32.43,0-59.42-27.37-59.42-59.05ZM576.78-224.55l-4.87-.37c-6.37.37-9,.37-14.25,3.94-2.81,2.06-4.87,4.12-5.81,6.19h38.43c-2.25-4.5-6.94-8.62-13.5-9.75Z"/>
    <path class="st10" d="M641.08-198.12c0-26.62,17.06-51.36,46.11-57.92,3.75-.94,7.5-1.31,11.25-1.31,12.93,0,26.62,5.06,34.87,12.56,11.06,10.31,20.06,26.06,20.06,53.24,0,3-1.12,4.5-3.37,4.5h-73.3c.56,1.12,4.31,7.12,9,10.31,3.94,2.81,9.19,4.12,14.25,4.12,8.62,0,17.06-4.31,20.43-9.56.75-1.31,1.69-2.06,3-2.06.75,0,1.5.37,2.44.94l21.75,13.5c1.31.75,2.06,1.88,2.06,3,0,.75-.19,1.5-.75,2.25-10.12,15.18-29.24,25.49-48.36,25.49-32.43,0-59.42-27.37-59.42-59.05ZM704.25-224.55l-4.87-.37c-6.37.37-9,.37-14.25,3.94-2.81,2.06-4.87,4.12-5.81,6.19h38.43c-2.25-4.5-6.94-8.62-13.5-9.75Z"/>
    <path class="st10" d="M845.4-138.69c-3.56,0-5.25-1.69-5.25-4.87v-57.55c0-14.62-8.44-22.12-19.31-22.12-7.69,0-13.87,3.56-18.37,10.69v68.98c0,3.19-1.87,4.87-5.62,4.87h-22.31c-3.56,0-5.25-1.69-5.25-4.87v-108.16c0-2.81,1.69-4.12,5.25-4.12h22.31c3.56,0,5.25,1.31,5.25,3.56l-.75,7.5c8.06-8.06,17.25-12,27.74-12,24.37,0,44.05,19.68,44.05,45.36v67.86c0,3.19-1.87,4.87-5.44,4.87h-22.31Z"/>
    <path class="st10" d="M894.7-281.91c0-10.31,8.25-18.56,18.56-18.56s18.75,8.44,18.75,18.56-8.25,18.75-18.75,18.75-18.56-8.06-18.56-18.75ZM901.44-138.69c-3.56,0-5.25-1.69-5.25-4.87v-107.22c0-2.81,1.69-4.12,5.25-4.12h22.31c3.56,0,5.44,1.31,5.44,4.12v107.22c0,3.19-1.88,4.87-5.44,4.87h-22.31Z"/>
    <path class="st10" d="M958.69-157.25c0-10.68,8.44-18.75,18.56-18.75s18.75,8.25,18.75,18.75-8.06,18.56-18.75,18.56-18.56-8.25-18.56-18.56Z"/>
    <path class="st10" d="M1064.53-138.69c-22.12,0-40.49-14.43-40.49-41.43v-47.43h-18c-3.19,0-4.87-1.5-4.87-4.69v-17.06c0-3.75,1.69-5.62,4.87-5.62h18v-29.24c0-3.56,1.87-5.62,5.81-6.37l21.37-4.31,1.5-.19c3,0,4.31,1.69,4.31,4.87v35.24h18.75c2.81,0,4.12,1.87,4.12,5.62v17.06c0,3.19-1.31,4.69-4.12,4.69h-18.75v44.05c0,5.81,3.19,11.06,7.12,12.18,2.06.75,6.75,1.12,14.06,1.12,3,0,4.5,1.5,4.5,4.31v23.24c0,2.62-1.5,3.94-4.5,3.94h-13.68Z"/>
    <path class="st10" d="M1137.26-138.69c-2.06,0-3.56-1.69-4.87-5.25l-41.24-106.29c-.37-.75-.37-1.5-.37-2.06,0-1.69,1.5-2.63,4.5-2.63h26.99c2.25,0,3.75,1.12,4.69,3.56l24.74,65.24,24.56-65.42c.94-2.25,2.44-3.37,4.87-3.37h27.18c3,0,4.5.94,4.5,2.81,0,.56-.19,1.31-.56,2.06l-40.86,106.1c-1.31,3.56-3,5.25-5.06,5.25h-29.06Z"/>
  </g>
  <path class="st15" d="M174.09-100.81c-19.99,0-36.65-.27-53.32-.69-10.38-.26-20.76-.61-31.13-1.1-9.55-.45-19.09-.98-28.61-1.87-7.06-.66-14.14-1.22-21.06-2.79-17.21-3.91-28.35-14.46-33.23-31.4-2.1-7.29-2.96-14.84-3.77-22.37C.5-184.16-.3-207.37.1-230.61c.17-10.26.65-20.51,1.37-30.75.6-8.51,1.31-17.01,2.57-25.44,1-6.75,1.81-13.59,4.63-19.89,6.46-14.43,17.35-23.38,33.05-26.21,8.89-1.6,17.88-2.32,26.87-2.97,14.17-1.03,28.35-1.58,42.55-2.01,26.35-.81,52.7-1.16,79.06-.8,11,.15,22,.36,33,.67,11.12.31,22.23.75,33.34,1.37,7.54.42,15.07.87,22.59,1.59,8.39.81,16.86,1.39,24.96,3.89,15.16,4.67,24.83,14.82,29.03,30.11,2.05,7.48,3.1,15.14,3.99,22.83,1.57,13.71,2.3,27.47,2.73,41.25.39,12.36.34,24.71-.1,37.07-.33,9.27-.83,18.53-1.63,27.77-.82,9.56-1.91,19.07-3.73,28.49-1.63,8.41-4.49,16.22-10.25,22.75-6.48,7.34-14.51,12.03-24.12,13.9-8.38,1.63-16.87,2.33-25.37,3.02-11.13.89-22.28,1.42-33.43,1.86-9.72.38-19.45.58-29.17.82-13.75.33-27.5.54-37.94.51Z"/>
  <g>
    <path class="st11" d="M235.71-149.73c-3.27,3.94-9.02,4.08-12.66,1.07-3.97-3.28-4.33-9.01-1.14-12.9,27.62-33.58,27.5-82.05-.17-115.55-3.21-3.89-2.4-9.77,1.5-12.82s9.56-2.33,12.72,1.51c33.08,40.18,33.1,98.53-.26,138.69Z"/>
    <path class="st11" d="M118.01-161.79c3.32,4.05,3.09,9.52-.78,12.97-3.55,3.18-9.54,3.03-12.72-.78-33.44-40.06-33.55-98.52-.41-138.78,3.17-3.85,8.68-4.7,12.71-1.58,3.97,3.07,4.75,8.99,1.52,12.89-27.73,33.45-27.99,81.6-.32,115.28Z"/>
    <path class="st11" d="M216.01-187.43c-2.6,4.55-8.08,5.66-12.37,3.35-4.2-2.27-6.05-7.81-3.47-12.29,8.31-14.42,8.37-32.03-.24-46.34-2.87-4.78-.81-10.76,3.9-12.93,5.54-2.55,10.06.5,12.63,5.38,10.39,19.74,10.86,43.1-.45,62.83Z"/>
    <path class="st11" d="M139.76-196.52c2.68,4.66.81,10.13-3.38,12.44-4.49,2.47-9.82.91-12.38-3.62-11.11-19.63-11.18-43.52-.1-63.18,2.52-4.46,7.93-5.96,12.28-3.59,4.22,2.3,6.07,7.82,3.54,12.27-8.08,14.2-8.2,31.32.05,45.67Z"/>
    <circle class="st11" cx="170" cy="-219.21" r="18.15"/>
  </g>
  <g>
    <path class="st15" d="M-1669.71-4293.25c-3.66,0-5.49-1.65-5.49-5.13v-148.88c0-2.93,1.83-4.39,5.49-4.39h49.62c43.95,0,79.47,35.53,79.47,79.11s-35.71,79.29-79.47,79.29h-49.62ZM-1574.86-4373.27c0-24.17-20.33-45.05-45.23-45.05h-22.52v90.28h22.52c24.91,0,45.23-20.14,45.23-45.23Z"/>
    <path class="st15" d="M-1525.78-4351.21c0-26,16.66-50.18,45.05-56.58,3.66-.92,7.33-1.28,10.99-1.28,12.64,0,26,4.94,34.06,12.27,10.8,10.07,19.59,25.45,19.59,52.01,0,2.93-1.1,4.39-3.3,4.39h-71.6c.55,1.1,4.21,6.96,8.79,10.07,3.85,2.75,8.97,4.03,13.92,4.03,8.42,0,16.66-4.21,19.96-9.34.73-1.28,1.65-2.01,2.93-2.01.73,0,1.47.37,2.38.92l21.24,13.18c1.28.73,2.01,1.83,2.01,2.93,0,.73-.18,1.46-.73,2.2-9.89,14.83-28.57,24.9-47.25,24.9-31.68,0-58.05-26.74-58.05-57.68ZM-1464.07-4377.03l-4.76-.37c-6.23.37-8.79.37-13.92,3.85-2.75,2.01-4.76,4.03-5.68,6.04h37.54c-2.2-4.4-6.78-8.42-13.18-9.52Z"/>
    <path class="st15" d="M-1401.27-4351.21c0-26,16.66-50.18,45.05-56.58,3.66-.92,7.33-1.28,10.99-1.28,12.63,0,26,4.94,34.06,12.27,10.8,10.07,19.59,25.45,19.59,52.01,0,2.93-1.1,4.39-3.3,4.39h-71.6c.55,1.1,4.21,6.96,8.79,10.07,3.85,2.75,8.97,4.03,13.92,4.03,8.42,0,16.66-4.21,19.96-9.34.73-1.28,1.65-2.01,2.93-2.01.73,0,1.46.37,2.38.92l21.24,13.18c1.28.73,2.01,1.83,2.01,2.93,0,.73-.18,1.46-.73,2.2-9.89,14.83-28.57,24.9-47.25,24.9-31.68,0-58.05-26.74-58.05-57.68ZM-1339.55-4377.03l-4.76-.37c-6.23.37-8.79.37-13.92,3.85-2.75,2.01-4.76,4.03-5.68,6.04h37.54c-2.2-4.4-6.78-8.42-13.18-9.52Z"/>
    <path class="st15" d="M-1201.67-4293.16c-3.48,0-5.13-1.65-5.13-4.76v-56.22c0-14.28-8.24-21.61-18.86-21.61-7.51,0-13.55,3.48-17.95,10.44v67.39c0,3.11-1.83,4.76-5.49,4.76h-21.79c-3.48,0-5.13-1.65-5.13-4.76v-105.66c0-2.75,1.65-4.03,5.13-4.03h21.79c3.48,0,5.13,1.28,5.13,3.48l-.73,7.32c7.88-7.87,16.85-11.72,27.1-11.72,23.81,0,43.03,19.23,43.03,44.32v66.29c0,3.11-1.83,4.76-5.31,4.76h-21.79Z"/>
    <path class="st15" d="M-1153.51-4433.06c0-10.07,8.06-18.13,18.13-18.13s18.31,8.24,18.31,18.13-8.06,18.31-18.31,18.31-18.13-7.88-18.13-18.31ZM-1146.92-4293.16c-3.48,0-5.13-1.65-5.13-4.76v-104.75c0-2.75,1.65-4.03,5.13-4.03h21.79c3.48,0,5.31,1.28,5.31,4.03v104.75c0,3.11-1.83,4.76-5.31,4.76h-21.79Z"/>
    <path class="st15" d="M-1090.99-4311.29c0-10.44,8.24-18.31,18.13-18.31s18.31,8.06,18.31,18.31-7.87,18.13-18.31,18.13-18.13-8.06-18.13-18.13Z"/>
    <path class="st15" d="M-987.61-4293.16c-21.61,0-39.55-14.1-39.55-40.47v-46.33h-17.58c-3.11,0-4.76-1.47-4.76-4.58v-16.66c0-3.66,1.65-5.49,4.76-5.49h17.58v-28.57c0-3.48,1.83-5.49,5.68-6.23l20.88-4.21,1.46-.18c2.93,0,4.21,1.65,4.21,4.76v34.43h18.31c2.75,0,4.03,1.83,4.03,5.49v16.66c0,3.11-1.28,4.58-4.03,4.58h-18.31v43.03c0,5.68,3.11,10.8,6.96,11.9,2.01.73,6.59,1.1,13.73,1.1,2.93,0,4.4,1.47,4.4,4.21v22.71c0,2.56-1.47,3.85-4.4,3.85h-13.37Z"/>
    <path class="st15" d="M-916.56-4293.16c-2.01,0-3.48-1.65-4.76-5.13l-40.29-103.83c-.37-.73-.37-1.46-.37-2.01,0-1.65,1.46-2.56,4.39-2.56h26.37c2.2,0,3.66,1.1,4.58,3.48l24.17,63.73,23.99-63.91c.92-2.2,2.38-3.3,4.76-3.3h26.55c2.93,0,4.4.92,4.4,2.75,0,.55-.18,1.28-.55,2.01l-39.92,103.65c-1.28,3.48-2.93,5.13-4.94,5.13h-28.38Z"/>
    <path class="st15" d="M-999.67-4473.63c-.34-1.24-1.07-2.33-2.07-3.2l35.98-56.1c1.6.2,3.25-.49,4.17-1.94,1.28-2.01.7-4.67-1.31-5.96-2-1.29-4.67-.7-5.96,1.3-.93,1.45-.87,3.23-.02,4.6l-36.11,56.31c-1.6-.51-3.41-.68-5.3-.4s-3.58.96-4.96,1.9l-50.73-43.61c.42-1.56-.04-3.28-1.34-4.4-1.81-1.55-4.53-1.35-6.09.46-1.55,1.81-1.35,4.53.46,6.08,1.3,1.12,3.08,1.31,4.55.66l50.54,43.45c-.71,1.13-1.1,2.38-1.06,3.66l-72.53,10.6c-10.22,1.5-16.97,11.43-14.58,21.48l32.26,117.14-14.74-107.94c-.99-8.91,4.88-17.14,13.62-19.11l176.44-39.79-101.22,14.8"/>
  </g>
  <rect class="st0" x="327.47" y="-445.76" width="45.21" height="37.89"/>
  <rect class="st0" x="-204.76" y="-407.88" width="45.21" height="37.89"/>
  <path class="st11" d="M160.1,113.8c-.14.02-.26,0-.32-.14.14-.03.25,0,.32.14Z"/>
  <g>
    <path class="st11" d="M-203.45,59.3c2.49,1.44,2.49,5.03,0,6.47l-20.53,11.85-20.53,11.85c-2.49,1.44-5.6-.36-5.6-3.24v-47.4c0-2.88,3.11-4.67,5.6-3.24l20.53,11.85,20.53,11.85Z"/>
    <path class="st11" d="M-177.2,42.58l-34.17-19.73L-245.54,3.12c-15.36-8.87-34.56,2.22-34.56,19.96v78.91c0,17.74,19.2,28.83,34.56,19.96l34.17-19.73,34.17-19.73c15.37-8.87,15.37-31.05,0-39.92ZM-184.98,70.52l-33.3,19.23-33.31,19.23c-6.15,3.55-13.83-.88-13.83-7.99V24.08c0-7.1,7.68-11.53,13.83-7.99l33.31,19.23,33.3,19.23c6.15,3.55,6.15,12.43,0,15.97Z"/>
  </g>
  <text class="st4" transform="translate(384.59 474.06)"><tspan x="0" y="0">Deeni.tv</tspan></text>
  <g>
    <g>
      <path class="st3" d="M366.27,208.51c-3.75,0-5.62-1.69-5.62-5.25V50.86c0-3,1.87-4.5,5.62-4.5h50.8c44.99,0,81.36,36.37,81.36,80.98s-36.55,81.17-81.36,81.17h-50.8ZM463.38,126.59c0-24.74-20.81-46.11-46.3-46.11h-23.06v92.42h23.06c25.49,0,46.3-20.62,46.3-46.3Z"/>
      <path class="st3" d="M513.61,149.18c0-26.62,17.06-51.36,46.11-57.92,3.75-.94,7.5-1.31,11.25-1.31,12.93,0,26.62,5.06,34.87,12.56,11.06,10.31,20.06,26.06,20.06,53.24,0,3-1.12,4.5-3.37,4.5h-73.3c.56,1.12,4.31,7.12,9,10.31,3.94,2.81,9.19,4.12,14.25,4.12,8.62,0,17.06-4.31,20.43-9.56.75-1.31,1.69-2.06,3-2.06.75,0,1.5.37,2.44.94l21.75,13.5c1.31.75,2.06,1.88,2.06,3,0,.75-.19,1.5-.75,2.25-10.12,15.18-29.24,25.49-48.36,25.49-32.43,0-59.42-27.37-59.42-59.05ZM576.78,122.75l-4.87-.37c-6.37.37-9,.37-14.25,3.94-2.81,2.06-4.87,4.12-5.81,6.19h38.43c-2.25-4.5-6.94-8.62-13.5-9.75Z"/>
      <path class="st3" d="M641.08,149.18c0-26.62,17.06-51.36,46.11-57.92,3.75-.94,7.5-1.31,11.25-1.31,12.93,0,26.62,5.06,34.87,12.56,11.06,10.31,20.06,26.06,20.06,53.24,0,3-1.12,4.5-3.37,4.5h-73.3c.56,1.12,4.31,7.12,9,10.31,3.94,2.81,9.19,4.12,14.25,4.12,8.62,0,17.06-4.31,20.43-9.56.75-1.31,1.69-2.06,3-2.06.75,0,1.5.37,2.44.94l21.75,13.5c1.31.75,2.06,1.88,2.06,3,0,.75-.19,1.5-.75,2.25-10.12,15.18-29.24,25.49-48.36,25.49-32.43,0-59.42-27.37-59.42-59.05ZM704.25,122.75l-4.87-.37c-6.37.37-9,.37-14.25,3.94-2.81,2.06-4.87,4.12-5.81,6.19h38.43c-2.25-4.5-6.94-8.62-13.5-9.75Z"/>
      <path class="st3" d="M845.4,208.61c-3.56,0-5.25-1.69-5.25-4.87v-57.55c0-14.62-8.44-22.12-19.31-22.12-7.69,0-13.87,3.56-18.37,10.69v68.98c0,3.19-1.87,4.87-5.62,4.87h-22.31c-3.56,0-5.25-1.69-5.25-4.87v-108.16c0-2.81,1.69-4.12,5.25-4.12h22.31c3.56,0,5.25,1.31,5.25,3.56l-.75,7.5c8.06-8.06,17.25-12,27.74-12,24.37,0,44.05,19.68,44.05,45.36v67.86c0,3.19-1.87,4.87-5.44,4.87h-22.31Z"/>
      <path class="st3" d="M894.7,65.39c0-10.31,8.25-18.56,18.56-18.56s18.75,8.44,18.75,18.56-8.25,18.75-18.75,18.75-18.56-8.06-18.56-18.75ZM901.44,208.61c-3.56,0-5.25-1.69-5.25-4.87v-107.22c0-2.81,1.69-4.12,5.25-4.12h22.31c3.56,0,5.44,1.31,5.44,4.12v107.22c0,3.19-1.88,4.87-5.44,4.87h-22.31Z"/>
      <path class="st3" d="M958.69,190.05c0-10.68,8.44-18.75,18.56-18.75s18.75,8.25,18.75,18.75-8.06,18.56-18.75,18.56-18.56-8.25-18.56-18.56Z"/>
      <path class="st3" d="M1064.53,208.61c-22.12,0-40.49-14.43-40.49-41.43v-47.43h-18c-3.19,0-4.87-1.5-4.87-4.69v-17.06c0-3.75,1.69-5.62,4.87-5.62h18v-29.24c0-3.56,1.87-5.62,5.81-6.37l21.37-4.31,1.5-.19c3,0,4.31,1.69,4.31,4.87v35.24h18.75c2.81,0,4.12,1.87,4.12,5.62v17.06c0,3.19-1.31,4.69-4.12,4.69h-18.75v44.05c0,5.81,3.19,11.06,7.12,12.18,2.06.75,6.75,1.12,14.06,1.12,3,0,4.5,1.5,4.5,4.31v23.24c0,2.62-1.5,3.94-4.5,3.94h-13.68Z"/>
      <path class="st3" d="M1137.26,208.61c-2.06,0-3.56-1.69-4.87-5.25l-41.24-106.29c-.37-.75-.37-1.5-.37-2.06,0-1.69,1.5-2.63,4.5-2.63h26.99c2.25,0,3.75,1.12,4.69,3.56l24.74,65.24,24.56-65.42c.94-2.25,2.44-3.37,4.87-3.37h27.18c3,0,4.5.94,4.5,2.81,0,.56-.19,1.31-.56,2.06l-40.86,106.1c-1.31,3.56-3,5.25-5.06,5.25h-29.06Z"/>
    </g>
    <g>
      <path class="st2" d="M174.09,238.02c-19.99,0-36.65-.27-53.32-.69-10.38-.26-20.76-.61-31.13-1.1-9.55-.45-19.09-.98-28.61-1.87-7.06-.66-14.14-1.22-21.06-2.79-17.21-3.91-28.35-14.46-33.23-31.4-2.1-7.29-2.96-14.84-3.77-22.37C.5,154.66-.3,131.46.1,108.21c.17-10.26.65-20.51,1.37-30.75.6-8.51,1.31-17.01,2.57-25.44,1-6.75,1.81-13.59,4.63-19.89C15.13,17.7,26.02,8.75,41.72,5.92c8.89-1.6,17.88-2.32,26.87-2.97,14.17-1.03,28.35-1.58,42.55-2.01C137.49.13,163.84-.22,190.2.14c11,.15,22,.36,33,.67,11.12.31,22.23.75,33.34,1.37,7.54.42,15.07.87,22.59,1.59,8.39.81,16.86,1.39,24.96,3.89,15.16,4.67,24.83,14.82,29.03,30.11,2.05,7.48,3.1,15.14,3.99,22.83,1.57,13.71,2.3,27.47,2.73,41.25.39,12.36.34,24.71-.1,37.07-.33,9.27-.83,18.53-1.63,27.77-.82,9.56-1.91,19.07-3.73,28.49-1.63,8.41-4.49,16.22-10.25,22.75-6.48,7.34-14.51,12.03-24.12,13.9-8.38,1.63-16.87,2.33-25.37,3.02-11.13.89-22.28,1.42-33.43,1.86-9.72.38-19.45.58-29.17.82-13.75.33-27.5.54-37.94.51Z"/>
      <g>
        <path class="st11" d="M235.71,188.5c-3.27,3.94-9.02,4.08-12.66,1.07-3.97-3.28-4.33-9.01-1.14-12.9,27.62-33.58,27.5-82.05-.17-115.55-3.21-3.89-2.4-9.77,1.5-12.82s9.56-2.33,12.72,1.51c33.08,40.18,33.1,98.53-.26,138.69Z"/>
        <path class="st11" d="M118.01,176.44c3.32,4.05,3.09,9.52-.78,12.97-3.55,3.18-9.54,3.03-12.72-.78-33.44-40.06-33.55-98.52-.41-138.78,3.17-3.85,8.68-4.7,12.71-1.58,3.97,3.07,4.75,8.99,1.52,12.89-27.73,33.45-27.99,81.6-.32,115.28Z"/>
        <path class="st11" d="M216.01,150.79c-2.6,4.55-8.08,5.66-12.37,3.35-4.2-2.27-6.05-7.81-3.47-12.29,8.31-14.42,8.37-32.03-.24-46.34-2.87-4.78-.81-10.76,3.9-12.93,5.54-2.55,10.06.5,12.63,5.38,10.39,19.74,10.86,43.1-.45,62.83Z"/>
        <path class="st11" d="M139.76,141.7c2.68,4.66.81,10.13-3.38,12.44-4.49,2.47-9.82.91-12.38-3.62-11.11-19.63-11.18-43.52-.1-63.18,2.52-4.46,7.93-5.96,12.28-3.59,4.22,2.3,6.07,7.82,3.54,12.27-8.08,14.2-8.2,31.32.05,45.67Z"/>
        <circle class="st11" cx="170" cy="119.01" r="18.15"/>
      </g>
    </g>
  </g>
</svg>